<svg  viewBox="0 0 200 200" fill="none" xmlns="http://www.w3.org/2000/svg">
<circle cx="100" cy="100" r="100" fill="black"/>
<circle cx="100" cy="100" r="60" fill="#FFEDE9"/>
<path d="M96.7667 177L97.8371 179.672H103.243L104.314 177H105.884L101.392 188.039H99.6417L95.1496 177H96.7667ZM102.696 181.031H98.3761L100.54 186.453L102.696 181.031Z" fill="white"/>
<path d="M85.8223 175.953L80.58 174.839L80.8659 173.494L87.5448 174.913L85.2497 185.711L83.813 185.406L85.8223 175.953Z" fill="white"/>
<path d="M70.6656 171.276L65.7696 169.096L66.3288 167.84L72.5666 170.617L68.0767 180.702L66.7349 180.104L70.6656 171.276Z" fill="white"/>
<path d="M36.3276 158.074C35.6515 157.323 35.3345 156.476 35.3765 155.534C35.4185 154.592 35.8072 153.79 36.5426 153.128C37.2741 152.47 38.1122 152.171 39.0568 152.231C39.9979 152.288 40.8048 152.69 41.4774 153.437L43.5371 155.724L46.5909 152.974L47.5737 154.066L39.3701 161.453L36.3276 158.074ZM40.4817 154.386C40.0844 153.944 39.608 153.711 39.0525 153.686C38.4934 153.656 37.9914 153.842 37.5463 154.243C37.1011 154.644 36.8639 155.124 36.8346 155.683C36.798 156.241 36.9783 156.741 37.3756 157.182L39.4091 159.441L42.5153 156.644L40.4817 154.386Z" fill="white"/>
<path d="M34.6193 136.399L32.4721 141.446L33.2807 142.847L37.0763 140.655L37.8107 141.927L28.2506 147.447L26.0123 143.57C25.5227 142.722 25.3913 141.854 25.6179 140.965C25.842 140.072 26.369 139.386 27.1989 138.906C27.9702 138.461 28.7727 138.341 29.6063 138.545C30.4329 138.747 31.0984 139.223 31.6031 139.972L33.7326 134.864L34.6193 136.399ZM28.707 145.487L32.1711 143.487L30.6828 140.909C30.4016 140.422 30.0025 140.111 29.4858 139.977C28.969 139.842 28.4625 139.918 27.9664 140.204C27.4702 140.491 27.1513 140.892 27.0095 141.406C26.8677 141.921 26.9375 142.422 27.2187 142.909L28.707 145.487Z" fill="white"/>
<path d="M29.7046 124.08C29.9557 124.853 30.0528 125.623 29.9959 126.392C29.9341 127.163 29.7417 127.868 29.419 128.51C29.0962 129.152 28.6464 129.722 28.0694 130.222C27.4859 130.718 26.8127 131.09 26.0499 131.338C25.0344 131.668 24.0358 131.73 23.0541 131.523C22.0674 131.318 21.2028 130.873 20.4602 130.189C19.7111 129.501 19.1691 128.642 18.8343 127.612C18.4996 126.582 18.434 125.571 18.6375 124.579C18.8345 123.584 19.2718 122.714 19.9494 121.968C20.6205 121.218 21.4638 120.679 22.4793 120.349C23.4947 120.019 24.4966 119.959 25.4849 120.169C26.4716 120.374 27.3395 120.821 28.0886 121.508C28.8312 122.192 29.3699 123.05 29.7046 124.08ZM28.4984 126.764C28.6522 126.024 28.606 125.275 28.3598 124.517C28.1135 123.759 27.7115 123.128 27.1537 122.625C26.5942 122.117 25.9453 121.788 25.2069 121.639C24.4619 121.487 23.708 121.535 22.9452 121.783C22.1824 122.031 21.5468 122.434 21.0386 122.994C20.5238 123.55 20.1919 124.197 20.043 124.936C19.8876 125.671 19.933 126.417 20.1792 127.175C20.3643 127.745 20.6429 128.248 21.0151 128.686C21.3857 129.119 21.8098 129.455 22.2873 129.694C22.7647 129.933 23.2899 130.074 23.8628 130.118C24.4356 130.162 25.0093 130.091 25.5839 129.904C26.3468 129.656 26.9856 129.254 27.5004 128.698C28.0102 128.144 28.3429 127.499 28.4984 126.764Z" fill="white"/>
<path d="M15.4662 110.816C15.3562 109.769 15.4949 108.797 15.8821 107.897C16.2694 106.997 16.8573 106.263 17.6458 105.693C18.4291 105.123 19.3361 104.784 20.3669 104.676C21.3977 104.568 22.358 104.71 23.2477 105.104C24.1375 105.497 24.8653 106.094 25.4311 106.893C25.9969 107.693 26.3348 108.616 26.4448 109.662L26.8899 113.896L15.9113 115.05L15.4662 110.816ZM25.079 109.821C24.957 108.661 24.4613 107.731 23.5917 107.032C22.7222 106.332 21.6995 106.044 20.5237 106.168C19.7519 106.249 19.0714 106.501 18.4822 106.925C17.8873 107.343 17.4441 107.885 17.1526 108.549C16.8605 109.208 16.7547 109.921 16.8353 110.688L17.1252 113.446L25.3689 112.579L25.079 109.821Z" fill="white"/>
<path d="M26.6006 93.7515C26.513 94.5855 26.2415 95.3242 25.7864 95.9676C25.3318 96.6059 24.7499 97.0842 24.0409 97.4024C23.3267 97.7201 22.5578 97.8357 21.7342 97.7491L14.959 97.037L15.1117 95.5841L21.8558 96.2929C22.7157 96.3833 23.4656 96.1741 24.1057 95.6653C24.741 95.1508 25.1039 94.4636 25.1943 93.6037C25.2852 92.7387 25.0734 91.9885 24.5589 91.3531C24.0392 90.7172 23.3494 90.354 22.4895 90.2637L15.7454 89.5548L15.8973 88.1097L22.6725 88.8218C23.4961 88.9083 24.2242 89.1812 24.8567 89.6405C25.4841 90.0992 25.9535 90.6906 26.2649 91.4146C26.5769 92.1334 26.6888 92.9124 26.6006 93.7515Z" fill="white"/>
<path d="M29.9975 78.0393C29.7464 78.812 29.3719 79.4926 28.874 80.0811C28.3712 80.668 27.8007 81.1261 27.1624 81.4554C26.5242 81.7847 25.8249 81.9819 25.0645 82.047C24.3007 82.1055 23.5373 82.0108 22.7745 81.7629C21.7591 81.433 20.915 80.8959 20.2423 80.1516C19.5646 79.4056 19.1265 78.5377 18.9279 77.5476C18.726 76.5511 18.7924 75.5376 19.1272 74.5073C19.4378 73.5513 19.9365 72.7413 20.6232 72.0772C21.305 71.4116 22.0904 70.9494 22.9795 70.6906L23.3314 72.1357C22.6641 72.3187 22.0787 72.6542 21.5751 73.1422C21.0715 73.6303 20.7038 74.231 20.472 74.9443C20.287 75.5139 20.2163 76.0851 20.2602 76.658C20.3057 77.2259 20.4513 77.7469 20.697 78.221C20.9428 78.6952 21.2844 79.1183 21.7221 79.4906C22.1597 79.8628 22.6659 80.1422 23.2405 80.3289C24.0033 80.5768 24.7564 80.6271 25.4997 80.4798C26.2381 80.3309 26.8863 80.0048 27.4441 79.5015C28.0035 78.9932 28.4064 78.3602 28.6526 77.6023C28.8844 76.889 28.94 76.1869 28.8194 75.4961C28.6989 74.8052 28.4225 74.1897 27.9901 73.6494L29.1242 72.6872C29.6915 73.4191 30.0577 74.2555 30.2229 75.1964C30.3833 76.1356 30.3081 77.0832 29.9975 78.0393Z" fill="white"/>
<path d="M28.5478 55.0588L29.7386 55.7463L27.9691 58.8112L36.3384 63.6432L35.6119 64.9017L27.2425 60.0696L25.473 63.1345L24.2822 62.447L28.5478 55.0588Z" fill="white"/>
<path d="M45.3818 51.6803C44.8312 52.2918 44.1801 52.7814 43.4286 53.149C42.6732 53.5131 41.9237 53.7073 41.18 53.7315L40.8841 52.4139C41.5105 52.4032 42.1427 52.2575 42.7808 51.977C43.415 51.693 43.9569 51.3013 44.4064 50.802C44.8978 50.2563 45.185 49.6844 45.268 49.0863C45.3471 48.4847 45.1912 48.0079 44.8003 47.6559C44.6919 47.5583 44.5736 47.4834 44.4455 47.4311C44.3135 47.3753 44.1898 47.3375 44.0745 47.3178C43.9552 47.2945 43.819 47.298 43.6657 47.3281C43.5085 47.3548 43.3753 47.3821 43.2661 47.4099C43.1604 47.4339 43.0232 47.489 42.8544 47.5753C42.6817 47.6581 42.5524 47.7239 42.4664 47.7727C42.3801 47.8141 42.2496 47.8928 42.075 48.0089C41.9 48.1177 41.7857 48.1901 41.7323 48.226C41.6789 48.262 41.5722 48.3377 41.4123 48.453C41.0855 48.6914 40.7645 48.9 40.4494 49.0788C40.1338 49.2502 39.7968 49.3988 39.4383 49.5246C39.0794 49.6429 38.7383 49.7143 38.415 49.7386C38.0914 49.7556 37.7625 49.7083 37.4284 49.5967C37.0944 49.4851 36.788 49.3039 36.5093 49.053C35.8281 48.4396 35.5205 47.672 35.5865 46.7503C35.656 45.8247 36.0776 44.9322 36.8513 44.073C37.3601 43.5079 37.9183 43.0748 38.5257 42.7737C39.1367 42.4688 39.7333 42.3122 40.3156 42.3038L40.6579 43.5581C40.2081 43.5596 39.7204 43.6847 39.195 43.9335C38.6731 44.1785 38.2135 44.5216 37.8162 44.9628C37.3492 45.4815 37.0824 46.0191 37.0157 46.5758C36.9486 47.1251 37.1008 47.5671 37.4724 47.9016C38.1459 48.508 39.207 48.2791 40.6559 47.2148C40.812 47.096 40.9666 46.9865 41.12 46.8862C41.2768 46.7821 41.4824 46.6589 41.7368 46.5165C41.9946 46.3702 42.2428 46.2502 42.4813 46.1566C42.7194 46.0556 42.9862 45.9734 43.2816 45.91C43.5804 45.8427 43.8648 45.8149 44.1346 45.8266C44.4006 45.8347 44.6766 45.894 44.9627 46.0044C45.2522 46.111 45.5189 46.274 45.7627 46.4936C46.4556 47.1174 46.7614 47.9219 46.6803 48.9071C46.5988 49.885 46.1659 50.8094 45.3818 51.6803Z" fill="white"/>
<path d="M66.9915 30.8214L66.4513 29.6081L70.5765 27.7714L71.1167 28.9847L66.9915 30.8214Z" fill="white"/>
<path d="M104.267 26.0195L103.197 23.3477H97.7905L96.7202 26.0195H95.1499L99.6421 14.9805H101.392L105.884 26.0195H104.267ZM98.3374 21.9883H102.658L100.494 16.5664L98.3374 21.9883Z" fill="white"/>
<path d="M115.157 27.0667L120.399 28.181L120.113 29.5259L113.434 28.1063L115.729 17.3085L117.166 17.6138L115.157 27.0667Z" fill="white"/>
<path d="M130.314 31.7438L135.21 33.9236L134.651 35.1798L128.413 32.4025L132.903 22.3178L134.244 22.9152L130.314 31.7438Z" fill="white"/>
<path d="M164.652 44.948C165.328 45.6989 165.645 46.5452 165.603 47.4872C165.561 48.4291 165.172 49.2311 164.437 49.8932C163.705 50.5519 162.867 50.851 161.923 50.7904C160.981 50.7337 160.175 50.3318 159.502 49.5848L157.442 47.2973L154.388 50.047L153.406 48.9556L161.609 41.569L164.652 44.948ZM160.498 48.6357C160.895 49.077 161.371 49.3103 161.927 49.3358C162.486 49.3651 162.988 49.1793 163.433 48.7785C163.878 48.3777 164.115 47.8978 164.145 47.3388C164.181 46.7802 164.001 46.2802 163.604 45.839L161.57 43.5805L158.464 46.3773L160.498 48.6357Z" fill="white"/>
<path d="M166.359 66.6201L168.506 61.5735L167.698 60.173L163.902 62.3644L163.168 61.0924L172.728 55.5729L174.966 59.4497C175.456 60.2977 175.587 61.166 175.36 62.0546C175.136 62.9478 174.609 63.6339 173.779 64.1131C173.008 64.5584 172.206 64.6789 171.372 64.4746C170.546 64.2722 169.88 63.7965 169.375 63.0474L167.246 68.1559L166.359 66.6201ZM172.271 57.5324L168.807 59.5324L170.296 62.1101C170.577 62.5973 170.976 62.9082 171.493 63.0428C172.009 63.1775 172.516 63.1016 173.012 62.8151C173.508 62.5287 173.827 62.128 173.969 61.6131C174.111 61.0983 174.041 60.5973 173.76 60.1101L172.271 57.5324Z" fill="white"/>
<path d="M171.275 78.9396C171.024 78.1669 170.927 77.3961 170.984 76.6274C171.045 75.857 171.238 75.1511 171.56 74.5095C171.883 73.868 172.333 73.2974 172.91 72.7977C173.494 72.3015 174.167 71.9294 174.93 71.6815C175.945 71.3516 176.944 71.29 177.925 71.4967C178.912 71.7019 179.777 72.1466 180.519 72.8308C181.268 73.5184 181.81 74.3773 182.145 75.4076C182.48 76.4379 182.546 77.4489 182.342 78.4405C182.145 79.4355 181.708 80.306 181.03 81.0519C180.359 81.8012 179.516 82.3408 178.5 82.6707C177.485 83.0006 176.483 83.0606 175.495 82.8505C174.508 82.6453 173.64 82.199 172.891 81.5114C172.148 80.8272 171.61 79.9699 171.275 78.9396ZM172.481 76.2558C172.327 76.9958 172.373 77.7448 172.62 78.5026C172.866 79.2605 173.268 79.8911 173.826 80.3944C174.385 80.9026 175.034 81.2312 175.773 81.3801C176.518 81.5323 177.271 81.4845 178.034 81.2367C178.797 80.9888 179.433 80.5852 179.941 80.0257C180.456 79.4696 180.788 78.8224 180.936 78.084C181.092 77.3489 181.047 76.6025 180.8 75.8446C180.615 75.275 180.337 74.7713 179.964 74.3337C179.594 73.901 179.17 73.565 178.692 73.3259C178.215 73.0867 177.69 72.9452 177.117 72.9013C176.544 72.8574 175.97 72.9289 175.396 73.1156C174.633 73.3634 173.994 73.7654 173.479 74.3215C172.969 74.876 172.637 75.5207 172.481 76.2558Z" fill="white"/>
<path d="M185.512 92.2037C185.622 93.2501 185.484 94.223 185.096 95.1226C184.709 96.0222 184.121 96.7569 183.333 97.3268C182.549 97.8962 181.642 98.2351 180.611 98.3434C179.581 98.4517 178.62 98.3091 177.731 97.9156C176.841 97.5221 176.113 96.9256 175.547 96.1262C174.981 95.3268 174.644 94.404 174.534 93.3576L174.089 89.1232L185.067 87.9693L185.512 92.2037ZM175.899 93.1984C176.021 94.3587 176.517 95.2885 177.387 95.9879C178.256 96.6873 179.279 96.9752 180.455 96.8516C181.226 96.7705 181.907 96.5183 182.496 96.095C183.091 95.6764 183.534 95.1349 183.826 94.4706C184.118 93.8114 184.224 93.0985 184.143 92.3319L183.853 89.5737L175.61 90.4401L175.899 93.1984Z" fill="white"/>
<path d="M174.378 109.268C174.466 108.434 174.737 107.695 175.193 107.052C175.647 106.414 176.229 105.935 176.938 105.617C177.652 105.299 178.421 105.184 179.245 105.27L186.02 105.982L185.867 107.435L179.123 106.727C178.263 106.636 177.513 106.845 176.873 107.354C176.238 107.869 175.875 108.556 175.785 109.416C175.694 110.281 175.905 111.031 176.42 111.666C176.94 112.302 177.629 112.666 178.489 112.756L185.233 113.465L185.082 114.91L178.306 114.198C177.483 114.111 176.755 113.838 176.122 113.379C175.495 112.92 175.025 112.329 174.714 111.605C174.402 110.886 174.29 110.107 174.378 109.268Z" fill="white"/>
<path d="M170.982 124.982C171.233 124.209 171.607 123.529 172.105 122.94C172.608 122.354 173.179 121.895 173.817 121.566C174.455 121.237 175.154 121.04 175.915 120.975C176.679 120.916 177.442 121.011 178.205 121.259C179.22 121.588 180.064 122.126 180.737 122.87C181.415 123.616 181.853 124.484 182.051 125.474C182.253 126.47 182.187 127.484 181.852 128.514C181.542 129.47 181.043 130.28 180.356 130.944C179.674 131.61 178.889 132.072 178 132.331L177.648 130.886C178.315 130.703 178.901 130.367 179.404 129.879C179.908 129.391 180.276 128.791 180.507 128.077C180.692 127.508 180.763 126.936 180.719 126.363C180.674 125.796 180.528 125.275 180.282 124.8C180.037 124.326 179.695 123.903 179.257 123.531C178.82 123.159 178.314 122.879 177.739 122.693C176.976 122.445 176.223 122.394 175.48 122.542C174.741 122.691 174.093 123.017 173.535 123.52C172.976 124.028 172.573 124.661 172.327 125.419C172.095 126.132 172.039 126.835 172.16 127.525C172.28 128.216 172.557 128.832 172.989 129.372L171.855 130.334C171.288 129.602 170.922 128.766 170.756 127.825C170.596 126.886 170.671 125.938 170.982 124.982Z" fill="white"/>
<path d="M172.432 147.963L171.241 147.275L173.01 144.21L164.641 139.378L165.368 138.12L173.737 142.952L175.506 139.887L176.697 140.574L172.432 147.963Z" fill="white"/>
<path d="M155.597 151.339C156.148 150.728 156.799 150.238 157.55 149.871C158.306 149.506 159.055 149.312 159.799 149.288L160.095 150.606C159.468 150.616 158.836 150.762 158.198 151.043C157.564 151.327 157.022 151.718 156.572 152.217C156.081 152.763 155.794 153.335 155.711 153.933C155.632 154.535 155.788 155.012 156.179 155.364C156.287 155.461 156.405 155.536 156.533 155.588C156.665 155.644 156.789 155.682 156.904 155.702C157.024 155.725 157.16 155.722 157.313 155.691C157.47 155.665 157.604 155.637 157.713 155.61C157.818 155.586 157.956 155.53 158.125 155.444C158.297 155.361 158.427 155.296 158.512 155.247C158.599 155.205 158.729 155.127 158.904 155.011C159.079 154.902 159.193 154.829 159.247 154.793C159.3 154.757 159.407 154.682 159.567 154.567C159.893 154.328 160.214 154.12 160.53 153.941C160.845 153.769 161.182 153.621 161.541 153.495C161.9 153.377 162.241 153.305 162.564 153.281C162.888 153.264 163.216 153.311 163.55 153.423C163.885 153.534 164.191 153.716 164.47 153.967C165.151 154.58 165.458 155.348 165.392 156.269C165.323 157.195 164.901 158.087 164.128 158.947C163.619 159.512 163.061 159.945 162.453 160.246C161.842 160.551 161.246 160.707 160.663 160.716L160.321 159.461C160.771 159.46 161.258 159.335 161.784 159.086C162.306 158.841 162.765 158.498 163.163 158.057C163.63 157.538 163.897 157 163.963 156.444C164.03 155.894 163.878 155.452 163.507 155.118C162.833 154.511 161.772 154.74 160.323 155.805C160.167 155.924 160.012 156.033 159.859 156.133C159.702 156.237 159.497 156.361 159.242 156.503C158.984 156.649 158.736 156.769 158.498 156.863C158.259 156.964 157.993 157.046 157.697 157.11C157.398 157.177 157.114 157.205 156.844 157.193C156.578 157.185 156.302 157.125 156.016 157.015C155.727 156.909 155.46 156.746 155.216 156.526C154.523 155.902 154.217 155.098 154.299 154.112C154.38 153.135 154.813 152.21 155.597 151.339Z" fill="white"/>
<path d="M133.987 172.198L134.527 173.411L130.402 175.248L129.862 174.035L133.987 172.198Z" fill="white"/>
<path d="M100 72L106.93 93.0704L128 100L106.93 106.93L100 128L93.0704 106.93L72 100L93.0704 93.0704L100 72Z" fill="black"/>
</svg>
