<svg width="18" height="18" viewBox="0 0 20 20" fill="none" xmlns="http://www.w3.org/2000/svg">
<path d="M17.3667 3.84124C16.9411 3.41541 16.4357 3.07761 15.8795 2.84714C15.3233 2.61667 14.7271 2.49805 14.1251 2.49805C13.523 2.49805 12.9268 2.61667 12.3706 2.84714C11.8144 3.07761 11.309 3.41541 10.8834 3.84124L10.0001 4.72457L9.11672 3.84124C8.25698 2.98149 7.09092 2.49849 5.87506 2.49849C4.6592 2.49849 3.49313 2.98149 2.63339 3.84124C1.77365 4.70098 1.29065 5.86704 1.29065 7.0829C1.29065 8.29876 1.77365 9.46483 2.63339 10.3246L3.51672 11.2079L10.0001 17.6912L16.4834 11.2079L17.3667 10.3246C17.7926 9.89894 18.1303 9.39358 18.3608 8.83736C18.5913 8.28115 18.7099 7.68497 18.7099 7.0829C18.7099 6.48083 18.5913 5.88465 18.3608 5.32844C18.1303 4.77222 17.7926 4.26686 17.3667 3.84124Z" stroke="black" stroke-width="1.5" stroke-linecap="round" stroke-linejoin="round"/>
</svg>
