<svg width="79" height="83" viewBox="0 0 79 83" fill="none" xmlns="http://www.w3.org/2000/svg">
<path d="M37.4141 2.40924C38.5771 1.28414 40.4229 1.28414 41.5859 2.40924L47.906 8.52328C49.0144 9.59559 50.5556 10.0964 52.0827 9.88038L60.7895 8.64886C62.3917 8.42224 63.8849 9.50713 64.1645 11.101L65.6838 19.7622C65.9502 21.2812 66.9028 22.5923 68.2651 23.3151L76.033 27.4365C77.4624 28.1949 78.0327 29.9503 77.3221 31.4041L73.4603 39.3042C72.783 40.6897 72.783 42.3103 73.4603 43.6958L77.3221 51.5959C78.0327 53.0497 77.4624 54.8051 76.033 55.5635L68.2651 59.6849C66.9028 60.4077 65.9502 61.7188 65.6838 63.2378L64.1645 71.899C63.8849 73.4929 62.3917 74.5778 60.7895 74.3511L52.0827 73.1196C50.5556 72.9036 49.0144 73.4044 47.9059 74.4767L41.5859 80.5908C40.4229 81.7159 38.5771 81.7159 37.4141 80.5908L31.094 74.4767C29.9856 73.4044 28.4444 72.9036 26.9173 73.1196L18.2105 74.3511C16.6083 74.5778 15.1151 73.4929 14.8355 71.899L13.3162 63.2378C13.0498 61.7188 12.0972 60.4077 10.7349 59.6849L2.96705 55.5635C1.53762 54.8051 0.967261 53.0497 1.67791 51.5959L5.5397 43.6958C6.21699 42.3103 6.21699 40.6897 5.5397 39.3042L1.6779 31.4041C0.96726 29.9503 1.53763 28.1949 2.96705 27.4365L10.7349 23.3151C12.0972 22.5923 13.0498 21.2812 13.3162 19.7622L14.8355 11.101C15.1151 9.50713 16.6083 8.42224 18.2105 8.64886L26.9173 9.88038C28.4444 10.0964 29.9856 9.59558 31.0941 8.52328L37.4141 2.40924Z" fill="yellow" stroke="black" stroke-width="2"/>
</svg>
