<svg width="45" height="45" viewBox="0 0 45 45" fill="none" xmlns="http://www.w3.org/2000/svg">
<g id="air-plane 1">
<g id="Group">
<g id="Icon">
<g id="Group_2">
<path id="Vector" fill-rule="evenodd" clip-rule="evenodd" d="M35.1582 7.73438C36.3226 7.73438 37.2676 8.67937 37.2676 9.84375C37.2676 10.2319 37.5826 10.5469 37.9707 10.5469C38.3588 10.5469 38.6738 10.2319 38.6738 9.84375C38.6738 7.90313 37.0988 6.32812 35.1582 6.32812C34.7701 6.32812 34.4551 6.64312 34.4551 7.03125C34.4551 7.41937 34.7701 7.73438 35.1582 7.73438Z" fill="black"/>
</g>
<path id="Vector_2" fill-rule="evenodd" clip-rule="evenodd" d="M27.2999 35.8597H26.7205C25.5554 35.8597 24.6111 36.804 24.6111 37.9691V40.7816C24.6111 41.9466 25.5554 42.8909 26.7205 42.8909H29.533C30.073 42.8909 30.5659 42.6877 30.9393 42.3537C31.3126 42.6877 31.8055 42.8909 32.3455 42.8909H40.783C41.9481 42.8909 42.8924 41.9466 42.8924 40.7816V32.3441C42.8924 31.179 41.9481 30.2347 40.783 30.2347H32.3455C31.1804 30.2347 30.2361 31.179 30.2361 32.3441V35.9799C30.0161 35.9019 29.7798 35.8597 29.533 35.8597H28.8967L24.2997 27.3216L33.0486 18.5726V28.1253C33.0486 28.5134 33.3636 28.8284 33.7518 28.8284C34.1399 28.8284 34.4549 28.5134 34.4549 28.1253V27.593L37.3525 24.6948C38.1758 23.8721 38.1758 22.5348 37.3525 21.7121C36.5572 20.9162 35.2825 20.8894 34.4549 21.6312V17.1664L40.0757 11.5456C40.9595 10.6618 41.5614 9.53679 41.8068 8.31194C42.0036 7.32546 42.2554 6.06827 42.4649 5.01921C42.6034 4.32733 42.3868 3.61226 41.8883 3.11374C41.3898 2.61523 40.6747 2.39866 39.9829 2.53718C38.9338 2.74671 37.6766 2.99843 36.6901 3.1953C35.4653 3.44069 34.3403 4.04257 33.4565 4.92639L27.8357 10.5472H23.0193C23.7611 9.7196 23.7344 8.44483 22.9384 7.6496C22.1158 6.82624 20.7784 6.82624 19.9558 7.6496L17.0575 10.5472H14.9333C15.6751 9.7196 15.6484 8.44483 14.8525 7.6496C14.0298 6.82624 12.6925 6.82624 11.8698 7.6496L8.97153 10.5472H4.22052C3.25443 10.5472 2.41138 11.2039 2.17513 12.1412C1.93888 13.0777 2.3699 14.0558 3.22068 14.5135L16.6419 21.7409L10.9607 27.4222H4.22052C3.27271 27.4222 2.44092 28.055 2.18779 28.9683C1.93467 29.8824 2.32208 30.8527 3.13489 31.34L6.11403 33.1273C5.30192 34.4668 4.63958 35.8962 4.14106 37.3911L3.89778 38.1216L3.36131 38.6581C2.84733 39.1721 2.5049 39.833 2.38186 40.5495C2.26444 41.2344 2.121 42.069 2.121 42.069C2.08232 42.294 2.15544 42.5239 2.31716 42.6849C2.47818 42.8466 2.70811 42.9198 2.93311 42.8811L4.45254 42.6202C5.16903 42.4972 5.82997 42.1548 6.34395 41.6408L6.88044 41.105L7.61169 40.861C9.10654 40.3625 10.536 39.7001 11.8747 38.8887L13.6621 41.8672C14.1494 42.68 15.1197 43.0674 16.0337 42.8143C16.9471 42.5612 17.5799 41.7294 17.5799 40.7816V34.0414L23.2611 28.3601L27.2999 35.8597ZM38.6736 31.6409V32.9066C38.6736 33.3172 38.5105 33.7102 38.2208 34.0006C37.9304 34.2903 37.5367 34.4534 37.1268 34.4534H36.0018C35.5919 34.4534 35.1981 34.2903 34.9077 34.0006C34.618 33.7102 34.4549 33.3172 34.4549 32.9066V31.6409H32.3455C31.9574 31.6409 31.6424 31.9559 31.6424 32.3441V40.7816C31.6424 41.1697 31.9574 41.4847 32.3455 41.4847H40.783C41.1711 41.4847 41.4861 41.1697 41.4861 40.7816V32.3441C41.4861 31.9559 41.1711 31.6409 40.783 31.6409H38.6736ZM26.7205 37.2659H29.533C29.9211 37.2659 30.2361 37.5809 30.2361 37.9691V40.7816C30.2361 41.1697 29.9211 41.4847 29.533 41.4847H26.7205C26.3324 41.4847 26.0174 41.1697 26.0174 40.7816V37.9691C26.0174 37.5809 26.3324 37.2659 26.7205 37.2659ZM16.1736 35.4476L15.8551 35.7662C14.9889 36.6324 14.0509 37.4192 13.0532 38.1195L14.8679 41.1437C15.0304 41.4144 15.3538 41.5437 15.6583 41.4594C15.9627 41.375 16.1736 41.0973 16.1736 40.7816V35.4476ZM4.2149 41.2344L3.6756 41.3265L3.7677 40.7872C3.84153 40.3569 4.04684 39.961 4.35551 39.6523L9.34841 34.6594C9.62263 34.3852 10.0684 34.3852 10.3426 34.6594C10.6169 34.9337 10.6169 35.3794 10.3426 35.6537L5.34973 40.6466C5.04106 40.9552 4.64521 41.1605 4.2149 41.2344ZM9.32028 38.6651C11.3727 37.6998 13.2486 36.3835 14.8609 34.7712L39.0815 10.5514C39.7684 9.86374 40.2367 8.98905 40.4272 8.03632L41.0861 4.74359C41.1325 4.51296 41.06 4.2746 40.8941 4.10796C40.7275 3.94202 40.4891 3.8696 40.2585 3.91601L36.9658 4.57483C36.013 4.76538 35.1383 5.23366 34.4507 5.92061L22.5869 17.7844C22.3126 18.0587 21.8668 18.0587 21.5926 17.7844C21.3184 17.5102 21.3184 17.0644 21.5926 16.7902L26.4294 11.9534H4.22052C3.89849 11.9534 3.61724 12.1721 3.53849 12.485C3.45974 12.7972 3.60388 13.1227 3.88724 13.2753L17.6804 20.7024L19.6042 18.7787C19.8784 18.5044 20.3242 18.5044 20.5984 18.7787C20.8726 19.0529 20.8726 19.4987 20.5984 19.7729L10.2308 30.1405C8.61857 31.7527 7.30301 33.6287 6.33762 35.6818L8.35419 33.6652C9.17685 32.8419 10.5142 32.8419 11.3369 33.6652C12.1602 34.4879 12.1602 35.8252 11.3369 36.6479L9.32028 38.6651ZM37.2674 31.6409V32.9066C37.2674 32.9438 37.2526 32.9797 37.2259 33.0064C37.1999 33.0324 37.164 33.0472 37.1268 33.0472H36.0018C35.9645 33.0472 35.9286 33.0324 35.9026 33.0064C35.8759 32.9797 35.8611 32.9438 35.8611 32.9066V31.6409H37.2674ZM9.55443 28.8284H4.22052C3.90482 28.8284 3.62709 29.0394 3.54272 29.3438C3.45834 29.6483 3.5877 29.9717 3.8584 30.1341L6.88325 31.9489C7.58215 30.9519 8.36967 30.0132 9.23662 29.1462L9.55443 28.8284ZM34.4549 25.6039V23.6155L35.364 22.7063C35.6383 22.4321 36.084 22.4321 36.3583 22.7063C36.6325 22.9805 36.6325 23.4263 36.3583 23.7005L34.4549 25.6039ZM12.9491 10.5472H10.9607L12.864 8.64382C13.1383 8.3696 13.584 8.3696 13.8583 8.64382C14.1325 8.91804 14.1325 9.36382 13.8583 9.63804L12.9491 10.5472ZM21.0351 10.5472H19.0466L20.95 8.64382C21.2242 8.3696 21.67 8.3696 21.9442 8.64382C22.2184 8.91804 22.2184 9.36382 21.9442 9.63804L21.0351 10.5472Z" fill="black"/>
</g>
</g>
</g>
</svg>
