<svg width="51" height="50" viewBox="0 0 51 50" fill="none" xmlns="http://www.w3.org/2000/svg">
<g id="vuesax/linear/box-tick">
<g id="box-tick">
<g id="Group">
<path id="Vector" d="M48.5826 37.312C48.6243 38.8745 48.2076 40.3537 47.4576 41.6245C47.0409 42.3745 46.4785 43.0621 45.8535 43.6246C44.416 44.9579 42.5201 45.7704 40.4159 45.8329C37.3743 45.8954 34.6868 44.3329 33.2076 41.9371C32.416 40.7079 31.9368 39.2288 31.916 37.6663C31.8535 35.0413 33.0201 32.6662 34.8951 31.1037C36.3118 29.9371 38.1035 29.2079 40.0618 29.1662C44.666 29.0621 48.4785 32.7079 48.5826 37.312Z" stroke="black" stroke-width="1.5" stroke-miterlimit="10" stroke-linecap="round" stroke-linejoin="round"/>
<path id="Vector_2" d="M36.9995 37.562L39.1037 39.5619L43.4579 35.3535" stroke="black" stroke-width="1.5" stroke-linecap="round" stroke-linejoin="round"/>
</g>
<g id="Group_2">
<g id="Group_3">
<path id="Vector_3" d="M7.27002 15.5L25.6658 26.1458L43.9366 15.5624" stroke="black" stroke-width="1.5" stroke-linecap="round" stroke-linejoin="round"/>
<path id="Vector_4" d="M25.666 45.0208V26.125" stroke="black" stroke-width="1.5" stroke-linecap="round" stroke-linejoin="round"/>
</g>
<path id="Vector_5" d="M45.6866 19.1035V30.8953C45.6866 30.9994 45.6867 31.0827 45.6658 31.1868C44.2075 29.916 42.3325 29.1661 40.2492 29.1661C38.2908 29.1661 36.4783 29.8536 35.0408 30.9994C33.1242 32.5202 31.9158 34.8744 31.9158 37.4994C31.9158 39.0619 32.3533 40.541 33.1241 41.791C33.3116 42.1244 33.5408 42.4369 33.7908 42.7286L29.9783 44.8328C27.6033 46.1661 23.7283 46.1661 21.3533 44.8328L10.2283 38.666C7.70748 37.2702 5.64502 33.7703 5.64502 30.8953V19.1035C5.64502 16.2285 7.70748 12.7286 10.2283 11.3327L21.3533 5.16602C23.7283 3.83268 27.6033 3.83268 29.9783 5.16602L41.1033 11.3327C43.6242 12.7286 45.6866 16.2285 45.6866 19.1035Z" stroke="black" stroke-width="1.5" stroke-linecap="round" stroke-linejoin="round"/>
</g>
</g>
</g>
</svg>
