<svg width="20" height="20" viewBox="0 0 20 20" fill="none" xmlns="http://www.w3.org/2000/svg">
<g id="check-circle 1" clip-path="url(#clip0_446_11037)">
<path id="Vector" d="M18.3332 9.23355V10.0002C18.3321 11.7972 17.7503 13.5458 16.6743 14.9851C15.5983 16.4244 14.0859 17.4773 12.3626 17.9868C10.6394 18.4963 8.79755 18.4351 7.1119 17.8124C5.42624 17.1896 3.98705 16.0386 3.00897 14.5311C2.03089 13.0236 1.56633 11.2403 1.68457 9.44714C1.80281 7.65402 2.49751 5.94715 3.66507 4.58111C4.83263 3.21506 6.41049 2.26303 8.16333 1.867C9.91616 1.47097 11.7501 1.65216 13.3915 2.38355" stroke="black" stroke-width="2" stroke-linecap="round" stroke-linejoin="round"/>
<path id="Vector_2" d="M18.3333 3.33398L10 11.6756L7.5 9.17565" stroke="black" stroke-width="2" stroke-linecap="round" stroke-linejoin="round"/>
</g>
<defs>
<clipPath id="clip0_446_11037">
<rect width="20" height="20" fill="white"/>
</clipPath>
</defs>
</svg>
