<svg width="30" height="30" viewBox="0 0 30 30" fill="none" xmlns="http://www.w3.org/2000/svg">
<g id="grooming 1" clip-path="url(#clip0_446_8531)">
<path id="Vector" d="M15.8082 21.1333L2.44376 1.87109L2.06611 3.95941C1.45499 7.34618 2.19817 10.7684 4.15946 13.5947L11.2495 23.8138C10.7055 25.1459 10.8176 26.7158 11.697 27.9833C13.0765 29.9711 15.8178 30.4726 17.8125 29.0888C19.8029 27.7077 20.2991 24.9639 18.918 22.9724C18.1698 21.8948 17.0199 21.2734 15.8082 21.1333ZM16.81 27.6453C15.6177 28.4727 13.9691 28.1765 13.1408 26.9808C12.3125 25.787 12.6102 24.1406 13.8034 23.3116C14.9991 22.4833 16.6452 22.7811 17.4744 23.9742C18.3025 25.1699 18.0048 26.816 16.81 27.6453Z" fill="black"/>
<path id="Vector_2" d="M15.5406 13.665C17.5026 10.8385 18.246 7.41649 17.634 4.0295L17.2563 1.94141L10.9442 11.0395L14.1534 15.6642L15.5406 13.665Z" fill="black"/>
<path id="Vector_3" d="M5.59546 18.749L3.89327 21.2022C2.52272 21.3601 1.48063 22.039 0.782765 23.0435C-0.598995 25.0341 -0.103008 27.778 1.88826 29.1599C3.87336 30.5385 6.62063 30.0475 8.00376 28.0544C8.88335 26.7862 8.99482 25.2159 8.45054 23.8838L8.80416 23.374L5.59546 18.749ZM6.5602 27.0519C5.72936 28.2467 4.08141 28.542 2.89008 27.7162C1.69509 26.8871 1.39823 25.2401 2.22655 24.046C3.05602 22.8515 4.69619 22.5498 5.89576 23.3827C7.09052 24.2117 7.3883 25.8581 6.5602 27.0519Z" fill="black"/>
<path id="Vector_4" d="M27.3633 0H19.4531V1.75781H24.7266V3.51562H19.4531V5.27344H24.7266V7.03125H19.4531V8.78906H24.7266V10.5469H19.4531V12.3047H24.7266V14.0625H19.4531V15.8203H24.7266V17.5781H19.4531V19.3359H24.7266V27.3633C24.7266 28.8171 25.9094 30 27.3633 30C28.8174 30 30 28.8171 30 27.3633V2.63672C30 1.18286 28.8174 0 27.3633 0Z" fill="black"/>
</g>
<defs>
<clipPath id="clip0_446_8531">
<rect width="30" height="30" fill="white"/>
</clipPath>
</defs>
</svg>
