<svg width="123" height="61" viewBox="0 0 123 61" fill="none" xmlns="http://www.w3.org/2000/svg">
<g id="logoipsum-logo-46" clip-path="url(#clip0_446_8678)">
<path id="Vector" d="M0.036377 53.9992H11.3891V50.7665H3.4982V35.6719H0.036377V53.9992Z" fill="#333268"/>
<path id="Vector_2" d="M18.2113 54.3821C19.5859 54.3821 20.795 54.0766 21.8386 53.4657C22.8907 52.8463 23.7095 51.9936 24.295 50.9076C24.8889 49.813 25.1859 48.553 25.1859 47.1276C25.1859 45.7106 24.8931 44.4591 24.3077 43.373C23.7222 42.2785 22.9034 41.4215 21.8513 40.8021C20.8077 40.1827 19.5944 39.873 18.2113 39.873C16.8537 39.873 15.6531 40.1785 14.6095 40.7894C13.5659 41.4003 12.7471 42.253 12.1531 43.3476C11.5592 44.4336 11.2622 45.6936 11.2622 47.1276C11.2622 48.5445 11.5507 49.8003 12.1277 50.8948C12.7131 51.9809 13.5277 52.8336 14.5713 53.453C15.615 54.0724 16.8283 54.3821 18.2113 54.3821ZM18.2113 51.1494C17.1337 51.1494 16.315 50.7888 15.755 50.0676C15.2034 49.3379 14.9277 48.3579 14.9277 47.1276C14.9277 45.9312 15.1907 44.9639 15.7168 44.2257C16.2513 43.4791 17.0828 43.1057 18.2113 43.1057C19.3059 43.1057 20.1289 43.4706 20.6804 44.2003C21.2404 44.93 21.5204 45.9057 21.5204 47.1276C21.5204 48.307 21.2447 49.2742 20.6931 50.0294C20.1501 50.776 19.3228 51.1494 18.2113 51.1494Z" fill="#333268"/>
<path id="Vector_3" d="M32.0319 54.3821C32.6768 54.3821 33.2707 54.3057 33.8138 54.153C34.3653 54.0003 34.8659 53.7839 35.3156 53.5039V54.8912C35.3326 55.4003 35.201 55.8245 34.921 56.1639C34.6495 56.5118 34.2847 56.7706 33.8265 56.9403C33.3683 57.1185 32.8804 57.2076 32.3629 57.2076C31.8792 57.2076 31.4295 57.1015 31.0138 56.8894C30.6065 56.6773 30.2925 56.3676 30.0719 55.9603L26.8647 57.513C27.3907 58.4039 28.1416 59.1209 29.1174 59.6639C30.0932 60.2154 31.1665 60.4912 32.3374 60.4912C33.3471 60.4912 34.2847 60.3554 35.1501 60.0839C36.0156 59.8209 36.7453 59.4179 37.3392 58.8748C37.9416 58.3318 38.3532 57.6403 38.5738 56.8003C38.6501 56.5033 38.701 56.2021 38.7265 55.8966C38.7604 55.5997 38.7774 55.2815 38.7774 54.9421V40.2548H35.7483V41.0185C35.2816 40.6536 34.7513 40.3736 34.1574 40.1785C33.5719 39.9748 32.9229 39.873 32.2101 39.873C30.895 39.873 29.7495 40.187 28.7738 40.8148C27.798 41.4427 27.0386 42.3039 26.4956 43.3985C25.961 44.4845 25.6938 45.7276 25.6938 47.1276C25.6938 48.5021 25.9568 49.7366 26.4829 50.8312C27.0174 51.9257 27.7598 52.7912 28.7101 53.4276C29.6604 54.0639 30.7677 54.3821 32.0319 54.3821ZM32.5919 51.3021C31.8453 51.3021 31.2344 51.1154 30.7592 50.7421C30.2841 50.3688 29.9319 49.8682 29.7029 49.2403C29.4738 48.6039 29.3592 47.8997 29.3592 47.1276C29.3592 46.3639 29.478 45.6682 29.7156 45.0403C29.9532 44.4039 30.318 43.8991 30.8101 43.5257C31.3107 43.1439 31.9471 42.953 32.7192 42.953C33.8053 42.953 34.5816 43.3391 35.0483 44.1112C35.515 44.8748 35.7483 45.8803 35.7483 47.1276C35.7483 48.3748 35.5107 49.3845 35.0356 50.1566C34.5689 50.9203 33.7544 51.3021 32.5919 51.3021Z" fill="#333268"/>
<path id="Vector_4" d="M46.9998 54.3821C48.3744 54.3821 49.5835 54.0766 50.6271 53.4657C51.6792 52.8463 52.498 51.9936 53.0835 50.9076C53.6774 49.813 53.9744 48.553 53.9744 47.1276C53.9744 45.7106 53.6816 44.4591 53.0962 43.373C52.5107 42.2785 51.6919 41.4215 50.6398 40.8021C49.5962 40.1827 48.3828 39.873 46.9998 39.873C45.6422 39.873 44.4416 40.1785 43.398 40.7894C42.3544 41.4003 41.5356 42.253 40.9416 43.3476C40.3477 44.4336 40.0507 45.6936 40.0507 47.1276C40.0507 48.5445 40.3392 49.8003 40.9162 50.8948C41.5016 51.9809 42.3162 52.8336 43.3598 53.453C44.4035 54.0724 45.6168 54.3821 46.9998 54.3821ZM46.9998 51.1494C45.9222 51.1494 45.1034 50.7888 44.5434 50.0676C43.9919 49.3379 43.7162 48.3579 43.7162 47.1276C43.7162 45.9312 43.9792 44.9639 44.5053 44.2257C45.0398 43.4791 45.8713 43.1057 46.9998 43.1057C48.0944 43.1057 48.9174 43.4706 49.4689 44.2003C50.0289 44.93 50.3089 45.9057 50.3089 47.1276C50.3089 48.307 50.0331 49.2742 49.4816 50.0294C48.9386 50.776 48.1113 51.1494 46.9998 51.1494Z" fill="#333268"/>
<path id="Vector_5" d="M55.5004 38.3455H58.9622V35.291H55.5004V38.3455ZM55.5004 54.0001H58.9622V40.2546H55.5004V54.0001Z" fill="#333268"/>
<path id="Vector_6" d="M61.2251 60.1094H64.7124V53.5039C65.1621 53.7839 65.6585 54.0003 66.2015 54.153C66.753 54.3057 67.3512 54.3821 67.996 54.3821C69.2603 54.3821 70.3676 54.0639 71.3179 53.4276C72.2682 52.7912 73.0063 51.9257 73.5324 50.8312C74.0669 49.7366 74.3342 48.5021 74.3342 47.1276C74.3342 45.7276 74.0627 44.4845 73.5197 43.3985C72.9851 42.3039 72.23 41.4427 71.2542 40.8148C70.2785 40.187 69.133 39.873 67.8179 39.873C67.1051 39.873 66.4518 39.9748 65.8578 40.1785C65.2724 40.3736 64.7463 40.6536 64.2797 41.0185V40.2548H61.2251V60.1094ZM67.436 51.3021C66.2821 51.3021 65.4676 50.9203 64.9924 50.1566C64.5172 49.3845 64.2797 48.3748 64.2797 47.1276C64.2797 45.8803 64.513 44.8748 64.9797 44.1112C65.4548 43.3391 66.2312 42.953 67.3088 42.953C68.0809 42.953 68.713 43.1439 69.2051 43.5257C69.7057 43.8991 70.0748 44.4039 70.3124 45.0403C70.55 45.6682 70.6688 46.3639 70.6688 47.1276C70.6688 47.8997 70.5542 48.6039 70.3251 49.2403C70.096 49.8682 69.7439 50.3688 69.2688 50.7421C68.7936 51.1154 68.1827 51.3021 67.436 51.3021Z" fill="#333268"/>
<path id="Vector_7" d="M80.6056 54.3821C82.4044 54.3821 83.8128 53.9791 84.831 53.173C85.8492 52.3669 86.3583 51.2597 86.3583 49.8512C86.3583 48.7821 86.0274 47.9379 85.3656 47.3185C84.7122 46.6991 83.6007 46.1857 82.031 45.7785C80.9619 45.5069 80.1644 45.2863 79.6383 45.1166C79.1207 44.947 78.7771 44.7815 78.6074 44.6203C78.4462 44.4591 78.3656 44.2597 78.3656 44.0221C78.3656 43.6233 78.5565 43.3179 78.9383 43.1057C79.3286 42.8936 79.8419 42.8088 80.4783 42.8512C81.8274 42.953 82.5656 43.53 82.6928 44.5821L86.231 43.9457C86.0529 42.6985 85.4419 41.71 84.3983 40.9803C83.3547 40.2421 82.0225 39.873 80.4019 39.873C78.7389 39.873 77.411 40.2633 76.4183 41.0439C75.4256 41.8245 74.9292 42.8766 74.9292 44.2003C74.9292 45.2524 75.2728 46.0839 75.9601 46.6948C76.6474 47.2973 77.831 47.8148 79.511 48.2476C80.5038 48.5106 81.2335 48.7227 81.7001 48.8839C82.1753 49.0451 82.4807 49.2106 82.6165 49.3803C82.7522 49.5415 82.8201 49.7579 82.8201 50.0294C82.8201 50.4621 82.6504 50.8015 82.311 51.0476C81.9716 51.2851 81.488 51.4039 80.8601 51.4039C80.0965 51.4039 79.4644 51.2215 78.9638 50.8566C78.4716 50.4918 78.1535 49.987 78.0092 49.3421L74.471 49.8766C74.7001 51.3106 75.345 52.4221 76.4056 53.2112C77.4747 53.9918 78.8747 54.3821 80.6056 54.3821Z" fill="#333268"/>
<path id="Vector_8" d="M92.7442 54.4067C93.7369 54.4067 94.6024 54.2412 95.3406 53.9103C96.0788 53.5794 96.6982 53.1382 97.1988 52.5867V53.9994H100.253V40.2539H96.766V47.2285C96.766 48.077 96.6685 48.7642 96.4733 49.2903C96.2866 49.8079 96.0448 50.2024 95.7478 50.4739C95.4509 50.737 95.1327 50.9151 94.7933 51.0085C94.4539 51.1018 94.1357 51.1485 93.8388 51.1485C93.1006 51.1485 92.5278 50.983 92.1206 50.6521C91.7218 50.3212 91.4333 49.9097 91.2551 49.4176C91.0769 48.9254 90.9709 48.4376 90.9369 47.9539C90.903 47.4618 90.886 47.0588 90.886 46.7448V40.2539H87.3733V47.9667C87.3733 48.1957 87.3903 48.5606 87.4242 49.0612C87.4581 49.5618 87.5557 50.1176 87.7169 50.7285C87.8782 51.3309 88.1454 51.9121 88.5188 52.4721C88.9006 53.0321 89.4309 53.4945 90.1097 53.8594C90.7885 54.2242 91.6666 54.4067 92.7442 54.4067Z" fill="#333268"/>
<path id="Vector_9" d="M102.258 54.0002H105.745V45.6765C105.745 44.8875 105.961 44.2469 106.394 43.7547C106.835 43.2541 107.416 43.0038 108.138 43.0038C108.893 43.0038 109.483 43.2584 109.907 43.7675C110.339 44.2681 110.556 44.9723 110.556 45.8802V54.0002H114.018V45.6765C114.018 44.8875 114.234 44.2469 114.667 43.7547C115.108 43.2541 115.689 43.0038 116.41 43.0038C117.166 43.0038 117.755 43.2584 118.179 43.7675C118.612 44.2681 118.829 44.9723 118.829 45.8802V54.0002H122.29V44.9638C122.29 43.462 121.887 42.2487 121.081 41.3238C120.284 40.3905 119.1 39.9238 117.53 39.9238C116.648 39.9238 115.838 40.1147 115.099 40.4965C114.361 40.8784 113.772 41.4002 113.33 42.062C112.974 41.4172 112.465 40.8996 111.803 40.5093C111.141 40.119 110.318 39.9238 109.334 39.9238C108.502 39.9238 107.739 40.0893 107.043 40.4202C106.347 40.7426 105.77 41.1881 105.312 41.7565V40.2547H102.258V54.0002Z" fill="#333268"/>
<path id="Vector_10" d="M0 14.5C7.00093e-07 6.49187 6.49187 -7.0009e-07 14.5 0C18.8417 3.7957e-07 22.7378 1.90824 25.3952 4.93177C30.2168 10.345 34.2038 10.0602 38.4379 6.06395C40.5154 4.10244 43.3173 2.9 46.4 2.9C52.8065 2.90001 58 8.0935 58 14.5C58 20.9065 52.8065 26.1 46.4 26.1C43.3173 26.1 40.5154 24.8975 38.4379 22.936C34.2048 18.9407 30.2187 18.655 25.3987 24.0642C22.7412 27.0901 18.8436 29 14.5 29C6.49187 29 -7.00091e-07 22.5081 0 14.5Z" fill="#F2F5FA"/>
<path id="Vector_11" d="M0 14.5C7.00093e-07 6.49187 6.49187 -7.0009e-07 14.5 0C18.8417 3.7957e-07 22.7378 1.90824 25.3952 4.93177C30.2168 10.345 34.2038 10.0602 38.4379 6.06395C40.5154 4.10244 43.3173 2.9 46.4 2.9C52.8065 2.90001 58 8.0935 58 14.5C58 20.9065 52.8065 26.1 46.4 26.1C43.3173 26.1 40.5154 24.8975 38.4379 22.936C34.2048 18.9407 30.2187 18.655 25.3987 24.0642C22.7412 27.0901 18.8436 29 14.5 29C6.49187 29 -7.00091e-07 22.5081 0 14.5Z" fill="url(#paint0_linear_446_8678)"/>
<path id="Vector_12" d="M0 14.5C7.00093e-07 6.49187 6.49187 -7.0009e-07 14.5 0C18.8417 3.7957e-07 22.7378 1.90824 25.3952 4.93177C30.2168 10.345 34.2038 10.0602 38.4379 6.06395C40.5154 4.10244 43.3173 2.9 46.4 2.9C52.8065 2.90001 58 8.0935 58 14.5C58 20.9065 52.8065 26.1 46.4 26.1C43.3173 26.1 40.5154 24.8975 38.4379 22.936C34.2048 18.9407 30.2187 18.655 25.3987 24.0642C22.7412 27.0901 18.8436 29 14.5 29C6.49187 29 -7.00091e-07 22.5081 0 14.5Z" fill="url(#paint1_linear_446_8678)"/>
<path id="Vector_13" d="M0 14.5C7.00093e-07 6.49187 6.49187 -7.0009e-07 14.5 0C18.8417 3.7957e-07 22.7378 1.90824 25.3952 4.93177C30.2168 10.345 34.2038 10.0602 38.4379 6.06395C40.5154 4.10244 43.3173 2.9 46.4 2.9C52.8065 2.90001 58 8.0935 58 14.5C58 20.9065 52.8065 26.1 46.4 26.1C43.3173 26.1 40.5154 24.8975 38.4379 22.936C34.2048 18.9407 30.2187 18.655 25.3987 24.0642C22.7412 27.0901 18.8436 29 14.5 29C6.49187 29 -7.00091e-07 22.5081 0 14.5Z" fill="url(#paint2_radial_446_8678)"/>
<path id="Vector_14" d="M0 14.5C7.00093e-07 6.49187 6.49187 -7.0009e-07 14.5 0C18.8417 3.7957e-07 22.7378 1.90824 25.3952 4.93177C30.2168 10.345 34.2038 10.0602 38.4379 6.06395C40.5154 4.10244 43.3173 2.9 46.4 2.9C52.8065 2.90001 58 8.0935 58 14.5C58 20.9065 52.8065 26.1 46.4 26.1C43.3173 26.1 40.5154 24.8975 38.4379 22.936C34.2048 18.9407 30.2187 18.655 25.3987 24.0642C22.7412 27.0901 18.8436 29 14.5 29C6.49187 29 -7.00091e-07 22.5081 0 14.5Z" fill="url(#paint3_radial_446_8678)"/>
<path id="Vector_15" d="M0 14.5C7.00093e-07 6.49187 6.49187 -7.0009e-07 14.5 0C18.8417 3.7957e-07 22.7378 1.90824 25.3952 4.93177C30.2168 10.345 34.2038 10.0602 38.4379 6.06395C40.5154 4.10244 43.3173 2.9 46.4 2.9C52.8065 2.90001 58 8.0935 58 14.5C58 20.9065 52.8065 26.1 46.4 26.1C43.3173 26.1 40.5154 24.8975 38.4379 22.936C34.2048 18.9407 30.2187 18.655 25.3987 24.0642C22.7412 27.0901 18.8436 29 14.5 29C6.49187 29 -7.00091e-07 22.5081 0 14.5Z" fill="url(#paint4_radial_446_8678)"/>
</g>
<defs>
<linearGradient id="paint0_linear_446_8678" x1="43.6961" y1="21.7069" x2="10.3036" y2="-4.24328" gradientUnits="userSpaceOnUse">
<stop stop-color="#FF557E"/>
<stop offset="0.841052" stop-color="#FF5555" stop-opacity="0"/>
</linearGradient>
<linearGradient id="paint1_linear_446_8678" x1="14.5023" y1="27.0553" x2="23.4238" y2="-3.84997" gradientUnits="userSpaceOnUse">
<stop stop-color="#58CCDC"/>
<stop offset="1" stop-color="#58CCDC" stop-opacity="0"/>
</linearGradient>
<radialGradient id="paint2_radial_446_8678" cx="0" cy="0" r="1" gradientUnits="userSpaceOnUse" gradientTransform="translate(45.4879 35.041) rotate(-122.928) scale(37.051 30.3393)">
<stop stop-color="#8263DB"/>
<stop offset="0.568731" stop-color="#8172DA" stop-opacity="0.26"/>
<stop offset="1" stop-color="#8172DA" stop-opacity="0"/>
</radialGradient>
<radialGradient id="paint3_radial_446_8678" cx="0" cy="0" r="1" gradientUnits="userSpaceOnUse" gradientTransform="translate(18.3021 -4.19503) rotate(77.6745) scale(24.9567 39.2264)">
<stop stop-color="#41D1B7"/>
<stop offset="0.492704" stop-color="#41D1B7" stop-opacity="0.35"/>
<stop offset="1" stop-color="#41D1B7" stop-opacity="0"/>
</radialGradient>
<radialGradient id="paint4_radial_446_8678" cx="0" cy="0" r="1" gradientUnits="userSpaceOnUse" gradientTransform="translate(59.6446 -10.7446) rotate(125.113) scale(27.1121 57.4261)">
<stop stop-color="#FFEC45"/>
<stop offset="0.549191" stop-color="#FFEC45" stop-opacity="0.3"/>
<stop offset="0.961144" stop-color="#FFEC45" stop-opacity="0"/>
</radialGradient>
<clipPath id="clip0_446_8678">
<rect width="123" height="61" fill="white"/>
</clipPath>
</defs>
</svg>
