<svg width="123" height="61" viewBox="0 0 130 47" fill="none" xmlns="http://www.w3.org/2000/svg">
<g id="logoipsum-logo-23">
<path id="Vector" d="M12.9517 20.2328C12.9152 21.0896 12.897 22.1744 12.897 23.487C12.897 24.7996 12.9152 25.8934 12.9517 26.7685C12.9881 27.6254 13.061 28.309 13.1704 28.8195C13.298 29.3299 13.4712 29.6854 13.69 29.886C13.927 30.0865 14.2369 30.1868 14.6198 30.1868C15.0026 30.1868 15.3034 30.0865 15.5222 29.886C15.7592 29.6854 15.9324 29.3299 16.0418 28.8195C16.1694 28.309 16.2514 27.6254 16.2879 26.7685C16.3244 25.8934 16.3426 24.7996 16.3426 23.487C16.3426 22.1744 16.3244 21.0896 16.2879 20.2328C16.2514 19.3577 16.1694 18.6649 16.0418 18.1545C15.9324 17.644 15.7592 17.2885 15.5222 17.088C15.3034 16.8874 15.0026 16.7871 14.6198 16.7871C14.2369 16.7871 13.927 16.8874 13.69 17.088C13.4712 17.2885 13.298 17.644 13.1704 18.1545C13.061 18.6649 12.9881 19.3577 12.9517 20.2328Z" fill="#394149"/>
<path id="Vector_2" fill-rule="evenodd" clip-rule="evenodd" d="M13.9205 3.1733C7.3267 3.3144 2.0855 8.7556 2.1913 15.35L2.3213 23.4524L2.1913 31.5548C2.0855 38.1493 7.3267 43.5905 13.9205 43.7315L22.0241 43.9049L30.1277 43.7315C36.7215 43.5905 41.9628 38.1493 41.857 31.5548L41.727 23.4524L41.857 15.35C41.9628 8.7556 36.7215 3.3144 30.1277 3.1733L22.0241 3L13.9205 3.1733ZM22.3041 33.7698L19.2413 36.4224L16.452 33.4143C16.2332 33.4508 16.0144 33.4782 15.7957 33.4964C15.5951 33.5328 15.3672 33.5511 15.112 33.5511H14.6198C13.3254 33.5511 12.2315 33.3779 11.3382 33.0315C10.4449 32.6851 9.7248 32.1108 9.1779 31.3087C8.631 30.4883 8.239 29.44 8.002 28.1639C7.765 26.8695 7.6465 25.3107 7.6465 23.4877C7.6465 21.6646 7.765 20.115 8.002 18.8388C8.239 17.5444 8.631 16.4962 9.1779 15.694C9.7248 14.8736 10.4449 14.2811 11.3382 13.9165C12.2315 13.5336 13.3254 13.3422 14.6198 13.3422C15.9142 13.3422 17.008 13.5336 17.9013 13.9165C18.7946 14.2811 19.5148 14.8736 20.0617 15.694C20.6086 16.4962 21.0006 17.5444 21.2376 18.8388C21.4746 20.115 21.5931 21.6646 21.5931 23.4877C21.5931 25.3654 21.4655 26.9515 21.2102 28.2459C20.955 29.5403 20.5357 30.5977 19.9523 31.4181L22.3041 33.7698ZM30.9363 20.753V19.6592C30.9363 18.5471 30.8269 17.7905 30.6081 17.3895C30.3894 16.9884 30.0339 16.7878 29.5416 16.7878C29.1588 16.7878 28.8489 16.8881 28.6119 17.0887C28.3931 17.2892 28.2199 17.6447 28.0923 18.1552C27.9829 18.6656 27.91 19.3584 27.8735 20.2335C27.837 21.0903 27.8188 22.1751 27.8188 23.4877C27.8188 24.8003 27.837 25.8941 27.8735 26.7692C27.91 27.6261 27.9829 28.3097 28.0923 28.8202C28.2199 29.3306 28.3931 29.6861 28.6119 29.8867C28.8489 30.0872 29.1588 30.1875 29.5416 30.1875C29.8515 30.1875 30.1068 30.1146 30.3073 29.9687C30.5079 29.8046 30.6628 29.5403 30.7722 29.1757C30.8816 28.8111 30.9545 28.3279 30.991 27.7263C31.0457 27.1065 31.073 26.3317 31.073 25.4019H35.9953V26.8513C35.9953 28.2186 35.813 29.3398 35.4484 30.2148C35.0838 31.0899 34.6007 31.7827 33.9991 32.2931C33.3974 32.7854 32.7047 33.1135 31.9207 33.2776C31.1551 33.4599 30.362 33.5511 29.5416 33.5511C28.1196 33.5511 26.9529 33.3779 26.0413 33.0315C25.1298 32.6851 24.4188 32.1108 23.9083 31.3087C23.3978 30.4883 23.0423 29.44 22.8418 28.1639C22.6595 26.8695 22.5683 25.3107 22.5683 23.4877C22.5683 21.6281 22.6777 20.0512 22.8965 18.7568C23.1335 17.4624 23.5255 16.4141 24.0724 15.612C24.6193 14.8098 25.3394 14.2355 26.2327 13.8891C27.126 13.5245 28.229 13.3422 29.5416 13.3422C30.6902 13.3422 31.6655 13.4881 32.4677 13.7798C33.2698 14.0715 33.917 14.4908 34.4093 15.0377C34.9197 15.5664 35.2843 16.2136 35.5031 16.9793C35.7401 17.7267 35.8586 18.5745 35.8586 19.5225V20.753H30.9363Z" fill="#394149"/>
<path id="Vector_3" fill-rule="evenodd" clip-rule="evenodd" d="M65.7549 16.9361L70.2131 21.5626L74.6713 16.9361H82.417L74.0801 24.8673L82.417 32.7984H74.6713L70.2131 28.1601L65.7549 32.7984H57.9974L66.3344 24.8673L57.9974 16.9361H65.7549ZM65.3251 24.8673L56.2576 16.2412H66.0513L70.2131 20.5601L74.3749 16.2412H83.819V16.2294H99.825C103.485 16.192 106.583 19.2526 106.533 22.9249C106.532 24.2458 106.175 25.4634 105.46 26.5471C104.922 27.3674 104.24 28.0423 103.423 28.5555L106.836 32.9376V30.0957C106.836 27.8691 108.5 26.4496 110.414 25.5082C112.347 24.5578 114.786 23.964 116.817 23.4836L116.82 23.4829L116.843 23.4771C118.095 23.1692 119.161 22.9071 119.92 22.6244C120.304 22.4811 120.556 22.3514 120.7 22.2412C120.718 22.2272 120.733 22.2148 120.746 22.2041C120.702 22.1637 120.612 22.1034 120.435 22.0339C120.022 21.8722 119.317 21.7504 118.249 21.7501C117.108 21.7619 116.138 21.8547 115.476 22.0869C115.15 22.2014 114.953 22.3318 114.842 22.4542C114.748 22.5593 114.692 22.684 114.697 22.8796L114.714 23.5912H107.084V22.8963C107.084 21.4697 107.364 20.2769 107.924 19.2996C108.487 18.3179 109.307 17.6011 110.307 17.087C112.269 16.0783 114.972 15.8281 117.986 15.8281C121.072 15.8281 123.634 16.1842 125.448 17.101C126.366 17.5656 127.112 18.1839 127.625 18.988C128.139 19.7942 128.391 20.7432 128.391 21.8223C128.391 23.8192 127.186 25.0911 125.709 25.9201C124.275 26.725 122.47 27.1821 120.971 27.5478H128.131V33.4698H107.25L107.259 33.4816H98.895L95.903 29.6104H91.408V33.4816H84.144L84.157 33.4934H74.3744L70.2131 29.164L66.0518 33.4934H56.2576L65.3251 24.8673ZM83.819 33.1716V16.5629L75.0893 24.8673L83.819 33.1716ZM96.246 28.9155L99.238 32.7866H105.836L102.371 28.3371C102.588 28.2366 102.795 28.1254 102.994 28.0038C103.752 27.5396 104.382 26.9229 104.878 26.1655C105.517 25.1977 105.836 24.1119 105.836 22.9199C105.884 19.6388 103.105 16.8889 99.829 16.9243H84.515V32.7866H90.711V28.9155H96.246ZM117.324 28.2427C117.541 27.9774 117.934 27.7518 118.456 27.5478C119.071 27.307 119.863 27.0962 120.753 26.8855C123.804 26.1419 127.695 25.1269 127.695 21.8223C127.695 17.9511 124.1 16.523 117.986 16.523C112.237 16.523 108.16 17.4596 107.806 22.2013C107.789 22.4245 107.78 22.656 107.78 22.8963H114.001C114 22.8701 114 22.8443 114.001 22.8189C114.035 21.409 115.981 21.0783 118.246 21.0551C120.457 21.0551 121.474 21.5508 121.474 22.2236C121.474 23.054 119.512 23.5367 117.048 24.1426L116.981 24.1591C112.889 25.1269 107.532 26.4724 107.532 30.0957V32.7748H127.434V28.2427H117.324ZM120.785 22.2574C120.785 22.2574 120.781 22.253 120.779 22.2428C120.785 22.252 120.785 22.2574 120.785 22.2574ZM98.932 22.9199C98.932 22.5484 98.64 22.2576 98.268 22.2576H91.408V23.5704H98.268C98.468 23.5704 98.608 23.5097 98.733 23.3845C98.876 23.2419 98.932 23.0993 98.932 22.9199ZM99.628 22.9199C99.628 22.1645 99.025 21.5626 98.268 21.5626H90.711V24.2653H98.268C98.646 24.2653 98.966 24.1355 99.226 23.8759C99.498 23.6044 99.628 23.2858 99.628 22.9199Z" fill="#394149"/>
<path id="Vector_4" d="M58.5709 44.2424H61.5388V40.1787L64.5122 44.2424H65.9961L68.9696 40.1787V44.2424H71.9375V36.625H68.2277L65.2542 40.4337L62.2864 36.625H58.5709V44.2424Z" fill="#394149"/>
<path id="Vector_5" d="M78.19 36.4375C75.3244 36.4432 72.9796 37.2706 72.9909 40.1555V40.7109C72.9796 43.5901 75.3244 44.4233 78.19 44.4289C81.05 44.4233 83.395 43.5901 83.384 40.7109V40.1555C83.384 37.2763 81.056 36.4375 78.19 36.4375ZM80.416 40.5239C80.433 41.7708 79.402 41.9975 78.19 42.0145C76.9726 41.9975 75.9417 41.7708 75.9587 40.5239V40.3369C75.9417 39.0956 76.9726 38.8689 78.19 38.8519C79.402 38.8689 80.433 39.0956 80.416 40.3369V40.5239Z" fill="#394149"/>
<path id="Vector_6" d="M91.698 40.4458C91.698 41.2109 91.262 41.84 90.492 41.84H87.241V39.0515H90.492C91.262 39.0515 91.698 39.6749 91.698 40.4458ZM84.273 36.6371V44.2544H91.047C93.137 44.2828 94.689 42.5145 94.672 40.4458C94.689 38.3657 93.137 36.6087 91.047 36.6371H84.273Z" fill="#394149"/>
<path id="Vector_7" d="M102.935 40.5301C102.952 41.7826 101.922 41.998 100.709 42.015C99.492 41.998 98.467 41.7826 98.478 40.5301V36.625H95.51V40.7171C95.499 43.5963 97.855 44.4238 100.709 44.4294C103.564 44.4238 105.92 43.5963 105.909 40.7171V36.625H102.935V40.5301Z" fill="#394149"/>
<path id="Vector_8" d="M107.245 36.625V44.2424H116.155V41.828H110.213V36.625H107.245Z" fill="#394149"/>
<path id="Vector_9" d="M117.168 44.254H126.078V42.2987H120.136V41.3238H126.078V39.5612H120.136V38.5863H126.078V36.6367H117.168V44.254Z" fill="#394149"/>
<path id="Vector_10" d="M60.2797 7.6065V6.0012H64.6786C64.8917 6.0012 65.0772 6.0783 65.2284 6.2395C65.3865 6.3938 65.4621 6.583 65.4621 6.8073C65.4621 7.0247 65.3865 7.2139 65.2284 7.3752C65.0772 7.5294 64.8917 7.6065 64.6786 7.6065H60.2797ZM56.6782 3.2463V12.6677H60.2797V10.3684H65.579C67.4829 10.3965 69.0981 8.7491 69.0706 6.8073C69.0981 4.8586 67.4829 3.2252 65.579 3.2463H56.6782Z" fill="#394149"/>
<path id="Vector_11" d="M76.2393 3C72.7615 3.007 69.916 4.0305 69.9297 7.5986V8.2856C69.916 11.8467 72.7615 12.8771 76.2393 12.8841C79.71 12.8771 82.556 11.8467 82.542 8.2856V7.5986C82.542 4.0375 79.717 3 76.2393 3ZM78.94 8.0542C78.961 9.5964 77.71 9.8768 76.2393 9.8979C74.7616 9.8768 73.5107 9.5964 73.5313 8.0542V7.8229C73.5107 6.2877 74.7616 6.0073 76.2393 5.9863C77.71 6.0073 78.961 6.2877 78.94 7.8229V8.0542Z" fill="#394149"/>
<path id="Vector_12" d="M96.584 9.21159L94.446 3.24609H90.391L88.247 9.21159L86.109 3.24609H82.054L86.109 12.6675H90.391L92.419 7.95679L94.446 12.6675H98.728L102.784 3.24609H98.728L96.584 9.21159Z" fill="#394149"/>
<path id="Vector_13" d="M103.059 12.6675H113.87V10.2491H106.66V9.04329H113.87V6.86319H106.66V5.65749H113.87V3.24609H103.059V12.6675Z" fill="#394149"/>
<path id="Vector_14" d="M115.788 3.23848V12.66H119.389V10.3607H122.606L124.345 12.66H128.18L126.166 10.0172C126.771 9.72978 127.259 9.29518 127.623 8.72738C127.995 8.15258 128.18 7.50768 128.18 6.79958C128.208 4.85078 126.592 3.21748 124.689 3.23848H115.788ZM123.781 5.99348C124.221 5.99348 124.572 6.35098 124.572 6.79958C124.572 7.01688 124.496 7.20618 124.338 7.36738C124.187 7.52168 124.001 7.59878 123.781 7.59878H119.389V5.99348H123.781Z" fill="#394149"/>
</g>
</svg>
