<svg width="123" height="61" viewBox="0 0 103 52" fill="none" xmlns="http://www.w3.org/2000/svg">
<g id="logoipsum-logo-22">
<path id="Vector" d="M8.03122 11.1781C7.39592 9.5635 7.67172 7.707 8.25692 6.1456C8.87262 4.5026 9.94472 2.8641 11.5471 2C11.6266 3.7314 11.0977 5.442 10.5198 6.9845C10.0001 8.3719 9.36242 9.85 8.30942 10.9974C8.14762 11.8668 8.02362 12.7338 7.93642 13.5968C8.28542 12.6851 8.85132 11.8541 9.55742 11.1859C10.4665 10.3255 11.8188 9.6616 13.0882 10.0542C12.7164 11.4574 11.8689 12.8025 10.8652 13.7461C10.0752 14.4888 9.03232 15.4405 7.80392 15.4779C7.75332 16.7479 7.78192 18.0063 7.88642 19.2476C8.05972 18.3392 8.43102 17.4838 8.96752 16.8468C9.70452 15.9715 10.7973 14.9021 12.1929 15.081C12.1167 16.5012 11.5502 17.9563 10.7613 19.0497C10.1344 19.9186 9.30682 21.026 8.13212 21.3121C8.32022 22.5318 8.58222 23.7313 8.91462 24.905C8.91782 24.0063 9.11632 23.1242 9.51012 22.4167C10.0651 21.419 10.9295 20.1748 12.3267 20.0775C12.5315 21.4708 12.254 22.9939 11.6942 24.2053C11.2468 25.1736 10.6503 26.4084 9.56302 26.9193C10.0196 28.1821 10.5599 29.4096 11.1794 30.5944C10.9619 29.5732 10.9706 28.4971 11.228 27.5289C11.5827 26.1941 12.4632 24.792 13.8768 24.3851C14.3765 25.8587 14.3076 27.5033 14.0173 29.0011C13.7784 30.2343 13.309 31.6827 12.2568 32.4838C12.9447 33.5939 13.7057 34.6593 14.5356 35.673C14.0897 34.6788 13.8681 33.5915 13.987 32.596C14.1602 31.1458 14.5677 29.5944 16.049 28.8212C16.8894 30.2712 17.0841 31.8979 17.1555 33.5046C17.2132 34.8035 17.0261 36.4056 16.124 37.4623C17.1163 38.494 18.187 39.4596 19.3306 40.35C18.5923 39.4029 18.0753 38.2915 17.9658 37.1924C17.8112 35.6395 17.8868 33.93 19.2649 32.7904C20.4435 34.0214 21.1468 35.8343 21.4915 37.4089C21.7963 38.8011 22.1145 40.4489 21.3888 41.819C22.8442 42.769 24.3979 43.606 26.0406 44.3148C24.8847 43.4911 23.9385 42.361 23.4877 41.1942C22.897 39.6647 22.5316 37.8422 23.6823 36.3104C25.224 37.2979 26.3571 38.9827 27.2498 40.5193C28.0158 41.8378 28.8087 43.6576 28.4153 45.2279C29.3248 45.5365 30.2578 45.8075 31.2131 46.0387L31.1563 46.2732C30.1974 46.0411 29.2608 45.7692 28.3476 45.4597C27.7078 47.3504 25.6119 47.975 23.9169 48.2508C21.5018 48.6437 18.6261 47.8824 16.5643 46.3488C17.6525 44.8109 19.8728 44.6549 21.547 44.5372L21.5688 44.5357C23.4029 44.4068 25.3866 44.579 27.231 45.0582C25.1003 44.2471 23.1066 43.2273 21.2682 42.0284L21.2411 42.0712C20.2337 43.7047 18.2111 43.7684 16.6235 43.6651C14.4692 43.5249 11.982 42.215 10.5425 40.4043C11.8965 39.2163 13.8964 39.5488 15.446 39.8064L15.4535 39.8076C17.183 40.0951 19.0729 40.7223 20.6593 41.688C20.5082 41.569 20.3603 41.4431 20.2166 41.3111C18.6742 40.2114 17.2514 38.9813 15.9603 37.6401C15.9453 37.6551 15.9301 37.67 15.9148 37.6848C14.6594 38.9477 12.831 38.617 11.4041 38.206C9.49462 37.656 7.51432 35.9967 6.56532 34.0918C8.03592 33.2678 9.79412 33.9468 11.1617 34.4839C12.6627 35.0734 14.2508 36.0164 15.4719 37.2185C15.346 37.0597 15.2259 36.8938 15.1124 36.7221C13.9774 35.4411 12.9564 34.0694 12.0588 32.6223L12.0138 32.6505C10.5936 33.567 8.98452 32.9033 7.70922 32.2506C5.98012 31.3657 4.59062 29.4209 3.99022 27.5083C5.52412 27.017 7.03962 27.9813 8.21772 28.745C9.50622 29.5802 10.8114 30.7714 11.7073 32.1375C11.6415 32.0029 11.5802 31.8653 11.5237 31.7251C10.6629 30.2233 9.93162 28.6467 9.33962 27.0112L9.30912 27.0216L9.30662 27.0225C8.01532 27.5134 6.57732 26.7502 5.63982 25.9132C4.33682 24.75 3.41842 22.9617 3.20312 21.2146C4.54942 21.0402 5.81782 22.0818 6.68502 22.9702C7.68322 23.9927 8.57912 25.2012 9.12992 26.5435C9.08972 26.3977 9.05522 26.2496 9.02622 26.1C8.52502 24.5631 8.14532 22.9781 7.89502 21.3577L7.87552 21.3601L7.86892 21.3612C6.50372 21.5891 5.24152 20.5512 4.48742 19.5439C3.42942 18.1304 2.88402 16.1741 3.02072 14.401C4.38062 14.4961 5.41612 15.7898 6.08762 16.8363C6.86482 18.0478 7.50932 19.4189 7.79162 20.8533C7.78302 20.7392 7.77792 20.6244 7.77612 20.5093C7.56882 18.8601 7.49492 17.1771 7.56252 15.4733L7.55862 15.4731C6.17062 15.4231 5.14482 14.1344 4.61522 12.9913C3.85742 11.3555 3.73542 9.2878 4.24122 7.5452C5.56412 7.9165 6.30162 9.434 6.73692 10.6021C7.23882 11.9489 7.58912 13.4178 7.59192 14.8782C7.66412 13.653 7.80952 12.4181 8.03122 11.1781Z" fill="#394149"/>
<path id="Vector_2" d="M35.3683 8.15625V14.0061C35.3683 16.5789 33.0381 17.8168 29.5064 17.8168C26.2053 17.8168 23.8387 16.5912 23.8387 13.7027V8.15625H27.1277V13.7027C27.1277 14.7343 28.0136 15.3774 29.6399 15.3774C31.1934 15.3774 32.1158 14.7099 32.1158 13.7147V8.15625H35.3683Z" fill="#394149"/>
<path id="Vector_3" d="M46.3223 15.1468V17.6834H37.2321V8.15625H40.5211V15.1468H46.3223Z" fill="#394149"/>
<path id="Vector_4" d="M56.0968 10.5471V8.15625H44.7249V10.5471H48.7421V17.6834H52.0675V10.5471H56.0968Z" fill="#394149"/>
<path id="Vector_5" fill-rule="evenodd" clip-rule="evenodd" d="M67.7631 9.12725C68.2001 9.57625 68.407 10.1952 68.407 11.0568C68.407 11.7972 68.225 12.4283 67.921 12.853C67.581 13.3142 67.059 13.7026 66.416 13.7997L69.293 17.6834H65.6761L63.309 14.3215H60.3602V17.6834H57.1198V8.15625H64.7051C66.2101 8.15625 67.1931 8.52035 67.7631 9.12725ZM65.142 11.8579C65.227 11.7122 65.251 11.518 65.251 11.3603C65.251 11.1782 65.227 10.9841 65.142 10.8628C64.972 10.5472 64.6321 10.4622 64.1221 10.4622H60.3723V12.1978H64.183C64.705 12.1978 65.021 12.1006 65.142 11.8579Z" fill="#394149"/>
<path id="Vector_6" fill-rule="evenodd" clip-rule="evenodd" d="M73.671 15.9236H78.817L79.654 17.6834H83.162L78.356 8.15625H74.436L69.351 17.6834H72.785L73.671 15.9236ZM77.785 13.7875H74.739L75.941 11.4938L76.305 10.6199L76.645 11.4816L77.785 13.7875Z" fill="#394149"/>
<path id="Vector_7" fill-rule="evenodd" clip-rule="evenodd" d="M67.416 19.4766C65.38 19.4766 64.309 20.4416 64.309 21.8596C64.309 23.4601 65.433 24.272 67.416 24.272C69.599 24.272 70.517 23.3306 70.517 21.8596C70.517 20.3651 69.481 19.4766 67.416 19.4766ZM67.416 23.0894C66.257 23.0894 65.921 22.6128 65.921 21.8773C65.921 21.1536 66.286 20.677 67.41 20.677C68.64 20.677 68.916 21.2124 68.916 21.8773C68.916 22.5834 68.581 23.0894 67.416 23.0894Z" fill="#394149"/>
<path id="Vector_8" d="M61.2913 24.2012V21.4652H58.2199V22.4596H59.8615C59.8498 22.5361 59.7909 22.6832 59.7144 22.7714C59.5438 22.9715 59.0907 23.148 58.5023 23.148C57.8904 23.148 57.4962 22.9891 57.2844 22.742C57.1432 22.5596 57.0608 22.3007 57.0608 21.9124C57.0608 21.5064 57.1432 21.2299 57.302 21.0475C57.5315 20.7886 57.9198 20.6768 58.4906 20.6768C59.0025 20.6768 59.3555 20.7944 59.5203 20.9415C59.6262 21.0298 59.7085 21.1534 59.7262 21.2357H61.2501C61.2443 21.0886 61.1972 20.8533 61.1148 20.6827C60.75 19.9413 59.9027 19.5 58.4612 19.5C57.2079 19.5 56.3665 19.8824 55.9017 20.4591C55.5957 20.8533 55.4545 21.3475 55.4545 21.9006C55.4545 22.5126 55.6192 23.0362 55.8899 23.3834C56.3488 23.9777 57.1667 24.2718 58.1493 24.2718C59.0143 24.2718 59.6085 24.0659 59.9851 23.7541L60.0263 24.2012H61.2913Z" fill="#394149"/>
<path id="Vector_9" d="M45.2632 21.4063C46.4576 21.5357 46.9695 21.9594 46.9695 22.7655C46.9695 23.7422 46.0163 24.2717 44.1393 24.2717C42.3918 24.2717 41.6387 23.7775 41.3503 23.1303C41.2856 22.9773 41.2562 22.789 41.2385 22.6713H42.9331C42.9449 22.7419 42.9861 22.8478 43.0449 22.9184C43.1861 23.0891 43.5803 23.1891 44.2511 23.1891C45.1161 23.1891 45.322 23.0655 45.322 22.8361C45.322 22.5889 45.1102 22.536 44.3276 22.4536C44.0158 22.4242 43.5215 22.3771 43.3156 22.3595C41.8211 22.2241 41.268 21.7593 41.268 20.965C41.268 20.1412 42.2447 19.5117 44.0275 19.5117C45.6103 19.5117 46.3458 19.9824 46.6518 20.5708C46.7459 20.7473 46.8047 20.9473 46.8224 21.0885H45.1278C45.1219 21.0238 45.0984 20.9591 45.0337 20.8767C44.9042 20.7061 44.5747 20.5943 43.9863 20.5943C43.1567 20.5943 42.939 20.6943 42.939 20.9061C42.939 21.1415 43.2156 21.1945 44.1393 21.2945C44.4982 21.3239 45.069 21.3827 45.2632 21.4063Z" fill="#394149"/>
<path id="Vector_10" fill-rule="evenodd" clip-rule="evenodd" d="M28.3707 19.9762C28.6825 20.2233 28.859 20.6411 28.859 21.2471C28.859 21.7414 28.7355 22.112 28.5001 22.3709C28.1824 22.7357 27.6587 22.9005 26.9762 22.9064C26.7643 22.9123 24.9521 22.9064 24.9521 22.9064V24.2008H23.3693V19.582H26.9526C27.5881 19.582 28.0706 19.7114 28.3707 19.9762ZM27.1998 21.606C27.2468 21.5237 27.2704 21.4177 27.2704 21.2706C27.2704 21.1177 27.2409 20.9882 27.188 20.9176C27.088 20.7705 26.8997 20.6999 26.5937 20.6999H24.9403V21.8296H26.5819C26.9114 21.8296 27.1056 21.7531 27.1998 21.606Z" fill="#394149"/>
<path id="Vector_11" fill-rule="evenodd" clip-rule="evenodd" d="M34.649 20.0527C34.8609 20.2704 34.9609 20.5705 34.9609 20.9882C34.9609 21.3471 34.8726 21.6531 34.7255 21.859C34.5608 22.0826 34.3078 22.2709 33.9959 22.318L35.3904 24.2008H33.637L32.4896 22.571H31.0598V24.2008H29.4888V19.582H33.1663C33.8959 19.582 34.3725 19.7585 34.649 20.0527ZM33.3781 21.3766C33.4193 21.306 33.431 21.2118 33.431 21.1353C33.431 21.0471 33.4193 20.9529 33.3781 20.8941C33.2957 20.7411 33.131 20.6999 32.8839 20.6999H31.0657V21.5413H32.9133C33.1663 21.5413 33.3193 21.4942 33.3781 21.3766Z" fill="#394149"/>
<path id="Vector_12" d="M40.7616 24.2008V23.0535H37.449V22.4533H40.6263V21.3295H37.449V20.7352H40.7204V19.582H35.8956V24.2008H40.7616Z" fill="#394149"/>
<path id="Vector_13" d="M52.6952 20.7411V19.582H47.182V20.7411H49.1295V24.2008H50.7417V20.7411H52.6952Z" fill="#394149"/>
<path id="Vector_14" d="M54.8151 19.582V24.2008H53.197V19.582H54.8151Z" fill="#394149"/>
<path id="Vector_15" d="M63.67 19.582V24.2008H62.0516V19.582H63.67Z" fill="#394149"/>
<path id="Vector_16" d="M76.76 19.582V22.418C76.76 23.6654 75.63 24.2656 73.918 24.2656C72.318 24.2656 71.17 23.6713 71.17 22.2709V19.582H72.765V22.2709C72.765 22.771 73.194 23.0829 73.983 23.0829C74.736 23.0829 75.183 22.7593 75.183 22.2768V19.582H76.76Z" fill="#394149"/>
<path id="Vector_17" d="M83.112 22.7655C83.112 21.9594 82.6 21.5357 81.406 21.4063C81.211 21.3827 80.641 21.3239 80.282 21.2945C79.358 21.1945 79.081 21.1415 79.081 20.9061C79.081 20.6943 79.299 20.5943 80.129 20.5943C80.717 20.5943 81.047 20.7061 81.176 20.8767C81.241 20.9591 81.264 21.0238 81.27 21.0885H82.965C82.947 20.9473 82.888 20.7473 82.794 20.5708C82.488 19.9824 81.753 19.5117 80.17 19.5117C78.387 19.5117 77.41 20.1412 77.41 20.965C77.41 21.7593 77.964 22.2241 79.458 22.3595L79.554 22.368L79.714 22.3826L80.47 22.4536C81.253 22.536 81.464 22.5889 81.464 22.8361C81.464 23.0655 81.259 23.1891 80.394 23.1891C79.723 23.1891 79.329 23.0891 79.187 22.9184C79.129 22.8478 79.087 22.7419 79.076 22.6713H77.381C77.399 22.789 77.428 22.9773 77.493 23.1303C77.781 23.7775 78.534 24.2717 80.282 24.2717C82.159 24.2717 83.112 23.7422 83.112 22.7655Z" fill="#394149"/>
<path id="Vector_18" fill-rule="evenodd" clip-rule="evenodd" d="M41.9666 25.9707C40.6435 25.9707 39.9475 26.5979 39.9475 27.5195C39.9475 28.5596 40.6779 29.0873 41.9666 29.0873C43.3854 29.0873 43.9819 28.4755 43.9819 27.5195C43.9819 26.5482 43.3089 25.9707 41.9666 25.9707ZM41.9666 28.3187C41.2133 28.3187 40.9953 28.0089 40.9953 27.5309C40.9953 27.0606 41.2324 26.7508 41.9628 26.7508C42.762 26.7508 42.9418 27.0988 42.9418 27.5309C42.9418 27.9898 42.7238 28.3187 41.9666 28.3187Z" fill="#394149"/>
<path id="Vector_19" d="M34.6085 28.1069C34.6085 27.583 34.2758 27.3076 33.4995 27.2235C33.3733 27.2082 33.0024 27.17 32.7691 27.1509C32.1687 27.0858 31.989 27.0514 31.989 26.8985C31.989 26.7608 32.1305 26.6958 32.6697 26.6958C33.0521 26.6958 33.2662 26.7684 33.3504 26.8793C33.3924 26.9329 33.4077 26.9749 33.4116 27.017H34.5129C34.5014 26.9252 34.4632 26.7952 34.402 26.6805C34.2031 26.2981 33.7251 25.9922 32.6964 25.9922C31.5378 25.9922 30.903 26.4013 30.903 26.9367C30.903 27.453 31.2624 27.7551 32.2337 27.843C32.3676 27.8545 32.6888 27.8851 32.8915 27.9042C33.4001 27.9577 33.5377 27.9922 33.5377 28.1528C33.5377 28.3019 33.4039 28.3822 32.8418 28.3822C32.4058 28.3822 32.1496 28.3172 32.0578 28.2063C32.0196 28.1604 31.9928 28.0916 31.9852 28.0457H30.8838C30.8953 28.1222 30.9144 28.2445 30.9565 28.344C31.1439 28.7646 31.6334 29.0858 32.7691 29.0858C33.989 29.0858 34.6085 28.7417 34.6085 28.1069Z" fill="#394149"/>
<path id="Vector_20" fill-rule="evenodd" clip-rule="evenodd" d="M26.9731 28.1921C26.9731 28.3986 26.9157 28.6013 26.801 28.7351C26.6251 28.9493 26.2962 29.041 25.8718 29.041H23.2064V26.0391H25.7991C26.2121 26.0391 26.476 26.1386 26.6213 26.2877C26.7513 26.4177 26.8087 26.5898 26.8087 26.7848C26.8087 26.9799 26.7628 27.1405 26.6634 27.259C26.583 27.3585 26.4454 27.4349 26.3001 27.4541C26.5142 27.4808 26.7169 27.5879 26.8316 27.737C26.9272 27.8479 26.9731 28.0162 26.9731 28.1921ZM25.6844 27.1405C25.7226 27.0984 25.7456 27.0372 25.7456 26.9646C25.7456 26.8919 25.7226 26.8307 25.6729 26.7887C25.6194 26.7389 25.5199 26.7198 25.3746 26.7198H24.2083V27.2093H25.4014C25.5314 27.2093 25.6309 27.1902 25.6844 27.1405ZM25.5123 28.3604C25.692 28.3604 25.7991 28.3374 25.8603 28.2801C25.8985 28.2418 25.9138 28.1845 25.9138 28.1118C25.9138 28.0353 25.8947 27.978 25.8488 27.9321C25.7915 27.8824 25.692 27.8594 25.5238 27.8594H24.2083V28.3604H25.5123Z" fill="#394149"/>
<path id="Vector_21" d="M30.5739 28.2954V29.041H27.4114V26.0391H30.5471V26.7887H28.4209V27.1749H30.4859V27.9053H28.4209V28.2954H30.5739Z" fill="#394149"/>
<path id="Vector_22" d="M38.3297 26.0391V26.7925H37.0601V29.041H36.0124V26.7925H34.7466V26.0391H38.3297Z" fill="#394149"/>
<path id="Vector_23" d="M47.4812 26.0391V26.8001H45.443V27.2246H47.3856V27.978H45.443V29.041H44.4143V26.0391H47.4812Z" fill="#394149"/>
<path id="Vector_24" d="M52.6624 26.7925V26.0391H49.0793V26.7925H50.3451V29.041H51.3929V26.7925H52.6624Z" fill="#394149"/>
<path id="Vector_25" d="M56.5719 26.0391V29.041H55.547V27.9512H54.0097V29.041H52.9849V26.0391H54.0097V27.1328H55.547V26.0391H56.5719Z" fill="#394149"/>
<path id="Vector_26" d="M60.3412 29.041V28.2954H58.1882V27.9053H60.2532V27.1749H58.1882V26.7887H60.3144V26.0391H57.1787V29.041H60.3412Z" fill="#394149"/>
<path id="Vector_27" d="M66.681 26.0391H67.671L66.574 29.041H65.45C65.45 29.041 64.849 27.2476 64.845 27.1978C64.842 27.2476 64.237 29.041 64.237 29.041H63.117L61.9927 26.0391H63.105C63.105 26.0391 63.756 27.9282 63.756 27.9741C63.756 27.9282 64.356 26.0391 64.356 26.0391H65.431C65.431 26.0391 66.035 27.9282 66.035 27.9741C66.035 27.9282 66.681 26.0391 66.681 26.0391Z" fill="#394149"/>
<path id="Vector_28" fill-rule="evenodd" clip-rule="evenodd" d="M69.635 25.9707C68.312 25.9707 67.616 26.5979 67.616 27.5195C67.616 28.5596 68.346 29.0873 69.635 29.0873C71.054 29.0873 71.65 28.4755 71.65 27.5195C71.65 26.5482 70.977 25.9707 69.635 25.9707ZM69.635 28.3187C68.882 28.3187 68.664 28.0089 68.664 27.5309C68.664 27.0606 68.901 26.7508 69.631 26.7508C70.431 26.7508 70.61 27.0988 70.61 27.5309C70.61 27.9898 70.392 28.3187 69.635 28.3187Z" fill="#394149"/>
<path id="Vector_29" fill-rule="evenodd" clip-rule="evenodd" d="M75.437 26.3451C75.574 26.4866 75.639 26.6816 75.639 26.9531C75.639 27.1864 75.582 27.3852 75.486 27.5191C75.379 27.6644 75.215 27.7868 75.012 27.8173L75.918 29.041H74.779L74.033 27.9818H73.104V29.041H72.083V26.0391H74.473C74.947 26.0391 75.257 26.1539 75.437 26.3451ZM74.611 27.2055C74.637 27.1596 74.645 27.0984 74.645 27.0487C74.645 26.9913 74.637 26.9302 74.611 26.8919C74.557 26.7925 74.45 26.7657 74.289 26.7657H73.108V27.3126H74.308C74.473 27.3126 74.572 27.282 74.611 27.2055Z" fill="#394149"/>
<path id="Vector_30" d="M79.1109 29.041V28.2418H77.2829V26.0391H76.2469V29.041H79.1109Z" fill="#394149"/>
<path id="Vector_31" fill-rule="evenodd" clip-rule="evenodd" d="M83.1659 27.4846C83.1659 27.9512 83.1199 28.2036 82.9829 28.4407C82.7759 28.8192 82.3669 29.041 81.6439 29.041H79.5179V26.0391H81.6209C82.3399 26.0391 82.7649 26.2418 82.9749 26.5898C83.1239 26.8231 83.1659 27.0716 83.1659 27.4846ZM81.4489 28.303C81.7739 28.303 81.9579 28.2265 82.0689 28.0583C82.1379 27.955 82.1569 27.7141 82.1569 27.5038C82.1529 27.3126 82.1299 27.1099 82.0689 27.0181C81.9499 26.8384 81.7709 26.7734 81.4569 26.7734H80.5429V28.303H81.4489Z" fill="#394149"/>
<path id="Vector_32" d="M42.1449 43.6406H40.5603C40.5603 43.6406 39.5263 46.6631 39.5263 46.7365C39.5263 46.6631 38.5596 43.6406 38.5596 43.6406H36.8403C36.8403 43.6406 35.8797 46.6631 35.8797 46.7365C35.8797 46.6631 34.8396 43.6406 34.8396 43.6406H33.0591L34.8579 48.4435H36.6506C36.6506 48.4435 37.6173 45.574 37.6234 45.4945C37.6296 45.574 38.5901 48.4435 38.5901 48.4435H40.3889L42.1449 43.6406Z" fill="#394149"/>
<path id="Vector_33" d="M44.3133 48.4435V43.6406H42.6307V48.4435H44.3133Z" fill="#394149"/>
<path id="Vector_34" d="M50.8579 43.6406V48.4435H49.2181L46.8381 45.7698V48.4435H45.2596V43.6406H46.9849L49.2915 46.2532V43.6406H50.8579Z" fill="#394149"/>
<path id="Vector_35" d="M57.4124 48.4435V43.6406H55.8461V46.2532L53.5395 43.6406H51.8141V48.4435H53.3926V45.7698L55.7727 48.4435H57.4124Z" fill="#394149"/>
<path id="Vector_36" d="M63.4291 47.2504V48.4435H58.3687V43.6406H63.3861V44.8398H59.984V45.4578H63.2881V46.6264H59.984V47.2504H63.4291Z" fill="#394149"/>
<path id="Vector_37" fill-rule="evenodd" clip-rule="evenodd" d="M69.8961 45.1029C69.8961 44.6685 69.7921 44.3565 69.5721 44.1301C69.2841 43.8242 68.7891 43.6406 68.0301 43.6406H64.2061V48.4435H65.84V46.7487H67.3271L68.5201 48.4435H70.3431L68.8931 46.4857C69.2171 46.4367 69.4801 46.2409 69.6521 46.0084C69.8041 45.7943 69.8961 45.4761 69.8961 45.1029ZM68.3051 45.2559C68.3051 45.3354 68.2931 45.4333 68.2501 45.5067C68.1891 45.6291 68.0301 45.678 67.7671 45.678H65.8461V44.8031H67.7361C67.9931 44.8031 68.1651 44.8459 68.2501 45.005C68.2931 45.0662 68.3051 45.1641 68.3051 45.2559Z" fill="#394149"/>
<path id="Vector_38" d="M37.2596 35.1672L36.5961 33.125L35.9325 35.1672H33.7852L35.5224 36.4293L34.8589 38.4715L36.5961 37.2094L38.3332 38.4715L37.6697 36.4293L39.4069 35.1672H37.2596Z" fill="#394149"/>
<path id="Vector_39" d="M44.2565 33.123L44.9336 35.1652H47.1247L45.3521 36.4274L46.0292 38.4695L44.2565 37.2074L42.4839 38.4695L43.161 36.4274L41.3883 35.1652H43.5794L44.2565 33.123Z" fill="#394149"/>
<path id="Vector_40" d="M52.533 35.1652L51.856 33.123L51.1789 35.1652H48.9877L50.7604 36.4274L50.0833 38.4695L51.856 37.2074L53.6286 38.4695L52.9515 36.4274L54.7242 35.1652H52.533Z" fill="#394149"/>
<path id="Vector_41" d="M59.4558 33.123L60.1329 35.1652H62.324L60.5514 36.4274L61.2285 38.4695L59.4558 37.2074L57.6832 38.4695L58.3603 36.4274L56.5876 35.1652H58.7788L59.4558 33.123Z" fill="#394149"/>
<path id="Vector_42" d="M67.7801 35.1652L67.1161 33.123L66.4521 35.1652H64.3051L66.0421 36.4274L65.3791 38.4695L67.1161 37.2074L68.8531 38.4695L68.1901 36.4274L69.9271 35.1652H67.7801Z" fill="#394149"/>
<path id="Vector_43" d="M95.6381 11.2232C96.2731 9.60872 95.9971 7.75202 95.4121 6.19062C94.7961 4.54772 93.7241 2.90902 92.1221 2.04492C92.0421 3.77642 92.5711 5.48692 93.1491 7.02942C93.6691 8.41672 94.3061 9.89472 95.3591 11.042C95.5211 11.9112 95.6451 12.778 95.7321 13.6408C95.3831 12.7295 94.8181 11.8989 94.1121 11.2309C93.2031 10.3704 91.8501 9.70662 90.5811 10.0992C90.9531 11.5023 91.8001 12.8475 92.8041 13.7911C93.5941 14.5338 94.6371 15.4854 95.8651 15.5229C95.9161 16.793 95.8871 18.0515 95.7821 19.2929C95.6091 18.3845 95.2381 17.5291 94.701 16.8921C93.9641 16.0167 92.8711 14.9474 91.4761 15.1263C91.5521 16.5465 92.1191 18.0016 92.9081 19.095C93.534 19.9639 94.3621 21.0714 95.5371 21.3575C95.3491 22.577 95.0871 23.7763 94.7541 24.9499C94.7511 24.0513 94.553 23.1692 94.159 22.4617C93.604 21.4641 92.7391 20.2198 91.3421 20.1225C91.1371 21.5158 91.4151 23.0389 91.9751 24.2503C92.4221 25.2186 93.0191 26.4534 94.1061 26.9643C93.6491 28.2273 93.1091 29.4551 92.4891 30.64C92.7071 29.6186 92.6981 28.5423 92.4411 27.5738C92.0861 26.239 91.2061 24.8368 89.7921 24.43C89.2921 25.9038 89.3611 27.5482 89.6521 29.046C89.8911 30.2793 90.3601 31.7277 91.4121 32.5288C90.7241 33.6395 89.9631 34.7054 89.1321 35.7196C89.5791 34.725 89.8001 33.6371 89.6811 32.6412C89.5081 31.1908 89.1011 29.6395 87.6201 28.8665C86.7791 30.3165 86.5841 31.9432 86.5131 33.5499C86.4551 34.8489 86.6421 36.4511 87.5451 37.5079C86.5521 38.5393 85.482 39.5046 84.3391 40.3948C85.0771 39.4477 85.5941 38.3364 85.7031 37.2374C85.8581 35.6845 85.7831 33.9751 84.4041 32.8354C83.2261 34.0664 82.5221 35.8793 82.1781 37.4539C81.8731 38.846 81.5551 40.4939 82.2801 41.864C80.8251 42.8142 79.2711 43.6513 77.6281 44.3603C78.7841 43.5365 79.7301 42.4062 80.1811 41.2392C80.7721 39.7098 81.1371 37.8872 79.9871 36.3554C78.4451 37.3429 77.3121 39.0276 76.4191 40.5643C75.6531 41.8829 74.8601 43.7028 75.2541 45.2731C74.3441 45.5817 73.4111 45.8527 72.4561 46.0839L72.5131 46.3184C73.4711 46.0863 74.4081 45.8144 75.3211 45.5049C75.9611 47.3955 78.0571 48.0203 79.7521 48.296C82.1671 48.6889 85.0431 47.9277 87.1051 46.394C86.0161 44.8561 83.7961 44.7001 82.1221 44.5824L82.1001 44.5809C80.2661 44.452 78.2821 44.6242 76.4381 45.1035C78.5681 44.2924 80.5621 43.2724 82.4011 42.0734L82.4261 42.1134C83.4331 43.7496 85.4571 43.8136 87.0451 43.7102C89.2001 43.57 91.6871 42.2601 93.1261 40.4494C91.7721 39.2616 89.7731 39.5939 88.2231 39.8514L88.215 39.8528C86.486 40.1402 84.5971 40.7671 83.0111 41.7325C83.1621 41.6136 83.3091 41.4879 83.4531 41.356C84.9951 40.2565 86.4171 39.0266 87.7081 37.6856C87.7261 37.7035 87.7441 37.7211 87.7621 37.7386C89.0181 38.9917 90.8411 38.6611 92.2651 38.251C94.1751 37.701 96.1551 36.0417 97.104 34.1368C95.633 33.3128 93.8751 33.9917 92.5081 34.5289C91.0051 35.1189 89.4161 36.063 88.1941 37.2667C88.3201 37.1077 88.4411 36.9415 88.5551 36.7695C89.6901 35.4878 90.7121 34.1153 91.6101 32.6673L91.6491 32.6914L91.659 32.6977C93.0781 33.6109 94.6861 32.9478 95.9601 32.2956C97.6891 31.4107 99.0791 29.4659 99.6791 27.5533C98.1451 27.062 96.6301 28.0263 95.4521 28.79C94.1621 29.6257 92.8561 30.8177 91.9601 32.1848C92.0261 32.0499 92.0881 31.9119 92.1451 31.7714C93.0061 30.2691 93.7371 28.6921 94.3291 27.0562L94.3601 27.0666L94.3651 27.0686C95.6561 27.5573 97.0931 26.7946 98.0301 25.9582C99.3321 24.795 100.251 23.0067 100.466 21.2596C99.1201 21.0852 97.8511 22.1268 96.9841 23.0151C95.9861 24.0383 95.0891 25.2476 94.5381 26.591C94.5791 26.4444 94.6141 26.2955 94.6431 26.145C95.1441 24.6082 95.5241 23.0233 95.7741 21.4031L95.812 21.4081C97.1721 21.6283 98.4301 20.5934 99.1821 19.5889C100.24 18.1754 100.785 16.2191 100.648 14.4459C99.2891 14.5411 98.2531 15.8347 97.5821 16.8813C96.8041 18.0934 96.1591 19.4653 95.8771 20.9006C95.8861 20.7858 95.8911 20.6704 95.8931 20.5546C96.1001 18.9053 96.1741 17.2222 96.1061 15.5184C97.4951 15.4697 98.5241 14.1801 99.0541 13.0365C99.8111 11.4008 99.9331 9.33302 99.4281 7.59052C98.1051 7.96182 97.3671 9.47912 96.9321 10.6472C96.4301 11.994 96.0801 13.4631 96.0771 14.9235C96.0051 13.6983 95.8591 12.4633 95.6381 11.2232Z" fill="#394149"/>
</g>
</svg>
