<svg width="123" height="61" viewBox="0 0 160 46" fill="none" xmlns="http://www.w3.org/2000/svg">
<g id="logoipsum-logo-33">
<path id="Vector" fill-rule="evenodd" clip-rule="evenodd" d="M26.6046 3.72499C25.1108 2.23186 22.6895 2.23235 21.1964 3.7261L8.73505 16.1926L8.72443 16.1895L8.68505 16.1937C8.70127 16.2015 8.71719 16.2092 8.73279 16.217C6.54681 16.446 5.61933 17.1029 5.60883 17.9465C5.61253 18.2603 5.74128 18.5992 5.97777 18.951L5.9664 18.9624C7.95368 21.9597 17.7986 25.9136 24.7636 23.2347C19.5436 25.8447 7.25025 26.362 3.6395 21.2944C2.85536 22.1427 2.52728 23.2575 2.65083 24.3288C3.60469 29.5862 14.2689 31.0205 24.9332 23.4032L27.2409 25.7109C24.3693 28.6611 20.1276 45.7976 26.4303 43.1812C26.5798 43.0797 26.7067 42.9889 26.8793 42.8583L27.1602 42.5931C27.144 42.5971 27.1279 42.6009 27.1119 42.6047L43.9919 26.669C45.5592 25.1893 45.5947 22.7074 44.0702 21.1835L26.6046 3.72499ZM24.7664 8.91828L25.3433 6.61059L25.9202 8.91828L27.651 9.49521L25.9202 10.0722L25.3433 12.3799L24.7664 10.0722L23.0356 9.49521L24.7664 8.91828ZM17.6255 16.4517L18.0101 14.9132L18.3947 16.4517L19.5486 16.8363L18.3947 17.2209L18.0101 18.7594L17.6255 17.2209L16.4717 16.8363L17.6255 16.4517ZM31.0211 29.4286L30.6365 30.967L29.4827 31.3517L30.6365 31.7363L31.0211 33.2747L31.4057 31.7363L32.5596 31.3517L31.4057 30.967L31.0211 29.4286Z" fill="#4845D2"/>
<path id="Vector_2" d="M54.898 12.2754H51.3159V28.4386H61.2323V25.2715H54.898V12.2754Z" fill="#4845D2"/>
<path id="Vector_3" d="M61.5744 22.9558C61.5744 26.4069 63.8897 28.7003 67.3844 28.7003C70.8574 28.7003 73.1726 26.4069 73.1726 22.9558C73.1726 19.5047 70.8574 17.1895 67.3844 17.1895C63.8897 17.1895 61.5744 19.5047 61.5744 22.9558ZM64.96 22.934C64.96 21.2958 65.921 20.2037 67.3844 20.2037C68.826 20.2037 69.7871 21.2958 69.7871 22.934C69.7871 24.594 68.826 25.6861 67.3844 25.6861C65.921 25.6861 64.96 24.594 64.96 22.934Z" fill="#4845D2"/>
<path id="Vector_4" d="M73.7137 22.7818C73.7137 26.0799 75.8543 28.3078 78.8903 28.3078C80.3538 28.3078 81.6206 27.7836 82.254 26.9318V28.4389C82.254 29.946 81.3148 30.9508 79.6548 30.9508C78.1695 30.9508 77.143 30.2518 77.0774 29.0068H73.6701C73.9758 31.9992 76.2911 34.0087 79.4582 34.0087C83.1933 34.0087 85.5522 31.5842 85.5522 27.7399V17.5178H82.5161L82.3414 18.6317C81.7298 17.7362 80.4411 17.1465 78.9559 17.1465C75.898 17.1465 73.7137 19.4399 73.7137 22.7818ZM77.1211 22.6944C77.1211 21.1218 78.1696 20.0733 79.5019 20.0733C81.0527 20.0733 82.1885 21.0999 82.1885 22.6944C82.1885 24.2889 81.0746 25.381 79.5238 25.381C78.1914 25.381 77.1211 24.2889 77.1211 22.6944Z" fill="#4845D2"/>
<path id="Vector_5" d="M86.5326 22.9558C86.5326 26.4069 88.8478 28.7003 92.3426 28.7003C95.8155 28.7003 98.1308 26.4069 98.1308 22.9558C98.1308 19.5047 95.8155 17.1895 92.3426 17.1895C88.8478 17.1895 86.5326 19.5047 86.5326 22.9558ZM89.9181 22.934C89.9181 21.2958 90.8792 20.2037 92.3426 20.2037C93.7842 20.2037 94.7452 21.2958 94.7452 22.934C94.7452 24.594 93.7842 25.6861 92.3426 25.6861C90.8792 25.6861 89.9181 24.594 89.9181 22.934Z" fill="#4845D2"/>
<path id="Vector_6" d="M101.031 15.8146C102.079 15.8146 102.931 14.9628 102.931 13.8925C102.931 12.8222 102.079 11.9922 101.031 11.9922C99.9606 11.9922 99.1087 12.8222 99.1087 13.8925C99.1087 14.9628 99.9606 15.8146 101.031 15.8146ZM99.3271 28.4394H102.713V17.5183H99.3271V28.4394Z" fill="#4845D2"/>
<path id="Vector_7" d="M104.683 33.6807H108.003V27.3465C108.637 28.1765 110.078 28.7444 111.586 28.7444C114.84 28.7444 116.806 26.2544 116.718 22.8033C116.631 19.2867 114.6 17.168 111.564 17.168C110.013 17.168 108.55 17.8451 107.938 18.8499L107.763 17.5175H104.683V33.6807ZM108.069 22.978C108.069 21.3399 109.161 20.2478 110.734 20.2478C112.328 20.2478 113.333 21.3617 113.333 22.978C113.333 24.5944 112.328 25.7083 110.734 25.7083C109.161 25.7083 108.069 24.6162 108.069 22.978Z" fill="#4845D2"/>
<path id="Vector_8" d="M117.077 24.9875C117.164 27.1936 118.912 28.7225 121.664 28.7225C124.307 28.7225 126.142 27.3246 126.142 25.0749C126.142 23.4586 125.18 22.3883 123.389 21.9515L121.445 21.4709C120.746 21.2962 120.31 21.1215 120.31 20.5536C120.31 19.9857 120.768 19.6143 121.445 19.6143C122.21 19.6143 122.712 20.1167 122.69 20.8594H125.727C125.639 18.5878 123.914 17.168 121.511 17.168C119.086 17.168 117.274 18.6096 117.274 20.7938C117.274 22.2573 118.082 23.4586 120.244 24.0265L122.166 24.5288C122.734 24.6817 122.974 24.9438 122.974 25.3152C122.974 25.8612 122.472 26.2107 121.62 26.2107C120.637 26.2107 120.113 25.752 120.113 24.9875H117.077Z" fill="#4845D2"/>
<path id="Vector_9" d="M131.29 28.7226C132.623 28.7226 133.955 28.1111 134.632 27.2155L134.851 28.4387H138.018V17.5176H134.654V23.1966C134.654 24.8347 134.173 25.7303 132.623 25.7303C131.421 25.7303 130.635 25.1842 130.635 23.1529V17.5176H127.271V24.376C127.271 26.9753 128.713 28.7226 131.29 28.7226Z" fill="#4845D2"/>
<path id="Vector_10" d="M143.352 28.4389V22.476C143.352 20.6412 144.335 20.117 145.296 20.117C146.366 20.117 147.065 20.7723 147.065 22.1265V28.4389H150.385V22.476C150.385 20.6194 151.346 20.0952 152.307 20.0952C153.377 20.0952 154.098 20.7504 154.098 22.1265V28.4389H157.375V21.2965C157.375 18.8065 156.064 17.1465 153.246 17.1465C151.674 17.1465 150.385 17.911 149.817 19.0904C149.162 17.911 148.026 17.1465 146.213 17.1465C145.012 17.1465 143.898 17.6925 143.243 18.5662L143.112 17.5178H139.966V28.4389H143.352Z" fill="#4845D2"/>
<path id="Vector_11" fill-rule="evenodd" clip-rule="evenodd" d="M45.2918 5.25195C41.6831 5.25195 38.2608 6.85486 35.9505 9.62716L27.7315 19.4901L32.4775 12.371L24.5995 15.7473C23.599 16.1761 23.348 17.4796 24.1176 18.2493L26.6528 20.7844L25.3584 22.3377L28.2061 25.1853L29.7593 23.8909L32.2945 26.4261C33.0641 27.1957 34.3677 26.9447 34.7964 25.9443L38.1727 18.0663L31.0537 22.8123L40.9166 14.5932C43.6889 12.283 45.2918 8.86067 45.2918 5.25195ZM37.4609 13.0831C38.2472 13.8694 39.5221 13.8694 40.3085 13.0831C41.0948 12.2967 41.0948 11.0218 40.3085 10.2355C39.5221 9.44908 38.2472 9.44908 37.4609 10.2355C36.6745 11.0218 36.6745 12.2967 37.4609 13.0831Z" fill="#A3A2FF"/>
<path id="Vector_12" opacity="0.6" d="M3.54791 21.1602C5.43337 27.62 16.8966 27.2832 24.7614 23.2341C19.495 25.8657 7.03693 26.3683 3.54791 21.1602Z" fill="#424242"/>
<path id="Vector_13" opacity="0.6" d="M26.4303 43.1812C21.1195 45.3858 23.2955 33.5654 25.8299 28.0254C23.9825 32.9496 22.4055 43.8047 27.1602 42.5931L26.8793 42.8583C26.7067 42.9889 26.5798 43.0797 26.4303 43.1812Z" fill="#424242"/>
</g>
</svg>
