<svg width="147" height="465" viewBox="0 0 147 465" fill="none" xmlns="http://www.w3.org/2000/svg">
<g clip-path="url(#clip0_446_8365)">
<path d="M32.003 23.2951C33.6616 22.8417 35.4309 23.041 36.947 23.8523C38.4631 24.6635 39.6106 26.0249 40.1536 27.6563L42.5817 34.9354C44.0289 39.004 39.3769 42.8118 35.6755 40.5853C33.6423 39.4262 32.5322 37.4732 30.2818 36.3208C27.994 35.0449 25.7803 35.0577 23.6105 34.1297C19.8265 32.2149 20.4843 26.3411 24.6049 25.3165L32.003 23.2951Z" fill="black"/>
<path d="M27.1962 11.9355C29.3201 12.5865 29.6451 15.5109 29.0421 17.5569C27.1391 23.8712 21.0333 22.002 22.6989 15.7807C23.4386 13.1283 25.4179 11.4369 27.1962 11.9355Z" fill="black"/>
<path d="M33.6943 19.3732C31.7824 18.3502 31.3908 15.3448 32.8176 12.6782C36.4439 6.36059 42.9946 9.86572 39.7457 16.3852C38.3188 19.0518 35.6012 20.3935 33.6943 19.3732Z" fill="black"/>
<path d="M46.5711 26.9347C47.9338 25.2951 50.5521 23.9456 52.2721 25.3514C55.3524 28.158 49.7806 34.9425 46.2882 33.0997C44.3509 31.979 44.6652 29.2025 46.5711 26.9347Z" fill="black"/>
<path d="M42.479 24.0736C40.5721 23.0533 40.1804 20.0479 41.6073 17.3813C45.2286 11.061 51.7793 14.5662 48.5353 21.0884C47.1085 23.755 44.3909 25.0966 42.479 24.0736Z" fill="black"/>
</g>
<path d="M235.748 382.68C233.748 426.013 213.148 499.08 146.748 444.68C63.7476 376.68 56.7476 210.68 104.748 218.68C152.748 226.68 110.748 349.68 63.7476 326.68C16.7476 303.68 -29.2524 127.68 26.7476 43.6797" stroke="black" stroke-dasharray="5 5"/>
<defs>
<clipPath id="clip0_446_8365">
<rect width="36.52" height="36.52" fill="white" transform="matrix(-0.881714 -0.471784 -0.471784 0.881714 61.1997 17.2305)"/>
</clipPath>
</defs>
</svg>
