<svg width="15" height="14" viewBox="0 0 15 14" fill="none" xmlns="http://www.w3.org/2000/svg">
<g id="instagram (3) 1" clip-path="url(#clip0_446_12371)">
<path id="Vector" d="M7.54138 3.40625C5.5563 3.40625 3.94922 5.01508 3.94922 6.99842C3.94922 8.9835 5.55805 10.5906 7.54138 10.5906C9.52647 10.5906 11.1336 8.98175 11.1336 6.99842C11.1336 5.01333 9.52472 3.40625 7.54138 3.40625ZM7.54138 9.33C6.2528 9.33 5.2098 8.28642 5.2098 6.99842C5.2098 5.71042 6.25339 4.66683 7.54138 4.66683C8.82938 4.66683 9.87297 5.71042 9.87297 6.99842C9.87355 8.28642 8.82997 9.33 7.54138 9.33Z" fill="black"/>
<path id="Vector_2" d="M10.4255 0.0439756C9.13753 -0.0161078 5.94728 -0.0131911 4.65811 0.0439756C3.52528 0.0970589 2.52603 0.370642 1.72045 1.17623C0.374112 2.52256 0.546195 4.33673 0.546195 6.99731C0.546195 9.72031 0.394528 11.4925 1.72045 12.8184C3.07203 14.1694 4.91245 13.9926 7.54153 13.9926C10.2389 13.9926 11.1699 13.9944 12.1236 13.6251C13.4204 13.1217 14.3992 11.9626 14.4949 9.88072C14.5555 8.59214 14.552 5.40248 14.4949 4.11331C14.3794 1.65573 13.0604 0.165309 10.4255 0.0439756ZM12.4643 11.9276C11.5817 12.8102 10.3573 12.7315 7.52461 12.7315C4.60795 12.7315 3.43836 12.7746 2.58495 11.9189C1.60203 10.9406 1.77995 9.36973 1.77995 6.98798C1.77995 3.76506 1.4492 1.44398 4.68378 1.27831C5.42695 1.25206 5.6457 1.24331 7.51645 1.24331L7.5427 1.26081C10.6513 1.26081 13.0902 0.935309 13.2366 4.16931C13.2699 4.90723 13.2774 5.12889 13.2774 6.99673C13.2769 9.87956 13.3317 11.0561 12.4643 11.9276Z" fill="black"/>
<path id="Vector_3" d="M11.275 4.10266C11.7386 4.10266 12.1144 3.72684 12.1144 3.26324C12.1144 2.79965 11.7386 2.42383 11.275 2.42383C10.8114 2.42383 10.4355 2.79965 10.4355 3.26324C10.4355 3.72684 10.8114 4.10266 11.275 4.10266Z" fill="black"/>
</g>
<defs>
<clipPath id="clip0_446_12371">
<rect width="14" height="14" fill="white" transform="translate(0.539062)"/>
</clipPath>
</defs>
</svg>
