<svg width="15" height="14" viewBox="0 0 15 14" fill="none" xmlns="http://www.w3.org/2000/svg">
<g id="linkedin (2) 1">
<g id="_x31_0.Linkedin">
<path id="Vector" d="M13.1403 12.5994V8.49741C13.1403 6.48141 12.7063 4.94141 10.3543 4.94141C9.22034 4.94141 8.46434 5.55741 8.15634 6.14541H8.12834V5.12341H5.90234V12.5994H8.22634V8.88941C8.22634 7.90941 8.40834 6.97141 9.61234 6.97141C10.8023 6.97141 10.8163 8.07741 10.8163 8.94541V12.5854H13.1403V12.5994Z" fill="black"/>
<path id="Vector_2" d="M2.12109 5.125H4.44509V12.601H2.12109V5.125Z" fill="black"/>
<path id="Vector_3" d="M3.28345 1.40039C2.54145 1.40039 1.93945 2.00239 1.93945 2.74439C1.93945 3.48639 2.54145 4.10239 3.28345 4.10239C4.02545 4.10239 4.62745 3.48639 4.62745 2.74439C4.62745 2.00239 4.02545 1.40039 3.28345 1.40039Z" fill="black"/>
</g>
</g>
</svg>
