<svg width="15" height="14" viewBox="0 0 15 14" fill="none" xmlns="http://www.w3.org/2000/svg">
<g id="twitter (2) 1" clip-path="url(#clip0_446_12375)">
<g id="Group">
<g id="Group_2">
<path id="Vector" d="M14.5391 2.65913C14.0184 2.8875 13.4637 3.03887 12.8853 3.11237C13.4803 2.75712 13.9344 2.19887 14.1479 1.526C13.5932 1.85675 12.9807 2.09038 12.3279 2.22075C11.8012 1.65988 11.0504 1.3125 10.2314 1.3125C8.64244 1.3125 7.36319 2.60225 7.36319 4.18338C7.36319 4.41088 7.38244 4.62962 7.42969 4.83787C5.04356 4.7215 2.93219 3.57788 1.51381 1.83575C1.26619 2.26538 1.12094 2.75713 1.12094 3.2865C1.12094 4.2805 1.63281 5.16162 2.39581 5.67175C1.93469 5.663 1.48231 5.52913 1.09906 5.31825C1.09906 5.327 1.09906 5.33838 1.09906 5.34975C1.09906 6.7445 2.09394 7.903 3.39856 8.16988C3.16494 8.23375 2.91031 8.26437 2.64606 8.26437C2.46231 8.26437 2.27681 8.25387 2.10269 8.21537C2.47456 9.352 3.52981 10.1876 4.78456 10.2148C3.80806 10.9786 2.56819 11.4389 1.22594 11.4389C0.990563 11.4389 0.764812 11.4284 0.539062 11.3995C1.81044 12.2194 3.31719 12.6875 4.94206 12.6875C10.2236 12.6875 13.1111 8.3125 13.1111 4.52025C13.1111 4.39337 13.1067 4.27087 13.1006 4.14925C13.6702 3.745 14.1488 3.24013 14.5391 2.65913Z" fill="black"/>
</g>
</g>
</g>
<defs>
<clipPath id="clip0_446_12375">
<rect width="14" height="14" fill="white" transform="translate(0.539062)"/>
</clipPath>
</defs>
</svg>
