<svg viewBox="0 0 128 128" fill="none" xmlns="http://www.w3.org/2000/svg">
<g id="paws 1" clip-path="url(#clip0_446_8579)">
<g id="Layer 15">
<path id="Vector" d="M73.5355 57.6136C69.2996 57.4974 65.1802 59.0089 62.0247 61.8371C58.8692 64.6654 56.9175 68.5953 56.5711 72.8186L55.0126 91.6646C53.9257 102.251 67.2888 108.648 74.8489 101.154C79.0391 97.1911 80.5552 91.8665 85.2693 87.7923C90.0008 83.4004 95.3081 82.1372 99.9604 78.6472C107.901 71.8515 102.893 58.1734 92.4285 58.129L73.5355 57.6136Z" fill="currentColor"/>
<path id="Vector_2" d="M78.4031 27.6068C73.6989 30.4068 74.6301 37.598 77.2695 42.1441C85.5161 56.1486 99.0415 48.1049 91.4177 34.1842C88.0965 28.2664 82.3692 25.3739 78.4031 27.6068Z" fill="currentColor"/>
<path id="Vector_3" d="M67.1933 49.2103C71.1726 45.6437 70.3537 38.2196 65.3792 32.6695C53.005 19.6641 39.3706 31.8845 50.9595 45.5938C55.934 51.1439 63.2245 52.7675 67.1933 49.2103Z" fill="currentColor"/>
<path id="Vector_4" d="M40.7855 74.8441C36.5649 71.7154 29.5077 70.0149 26.2114 74.3857C20.4774 82.9053 37.7822 95.8916 45.0662 89.4384C49.0492 85.6231 46.674 79.1595 40.7855 74.8441Z" fill="currentColor"/>
<path id="Vector_5" d="M48.9095 65.5993C52.8783 62.0421 52.0594 54.618 47.0849 49.0679C34.7211 36.0531 21.0868 48.2735 32.6652 61.9923C37.6397 67.5423 44.9302 69.166 48.9095 65.5993Z" fill="currentColor"/>
</g>
</g>
<defs>
<clipPath id="clip0_446_8579">
<rect width="90" height="90" fill="white" transform="translate(0.0913086 60.1602) rotate(-41.8697)"/>
</clipPath>
</defs>
</svg>
