<svg width="24" height="25" viewBox="0 0 24 25" fill="none" xmlns="http://www.w3.org/2000/svg">
<g id="filter 1">
<g id="Group">
<path id="Vector" d="M5.95894 21.1658L5.95894 18.886C7.61448 18.4361 8.5918 16.7292 8.14185 15.0737C7.85285 14.0104 7.02223 13.1798 5.95894 12.8908L5.95894 2.83429C5.95894 2.37411 5.58589 2.00105 5.1257 2.00105C4.66551 2.00105 4.29247 2.37411 4.29247 2.83429L4.29247 12.8908C2.63689 13.3407 1.65956 15.0476 2.10952 16.7031C2.39851 17.7664 3.22913 18.597 4.29243 18.886L4.29243 21.1658C4.29243 21.626 4.66548 21.999 5.12566 21.999C5.58585 21.999 5.95894 21.626 5.95894 21.1658Z" fill="black"/>
<path id="Vector_2" d="M11.3431 2.83429L11.3431 5.11407C9.68775 5.56312 8.70988 7.26901 9.15889 8.92431C9.44758 9.98846 10.2789 10.8198 11.3431 11.1085L11.3431 21.1658C11.3431 21.626 11.7161 21.999 12.1763 21.999C12.6365 21.999 13.0095 21.626 13.0095 21.1658L13.0095 11.1085C14.6648 10.6594 15.6427 8.95353 15.1937 7.29822C14.905 6.23407 14.0737 5.40275 13.0095 5.11406L13.0095 2.83429C13.0095 2.37411 12.6365 2.00105 12.1763 2.00105C11.7161 2.00105 11.3431 2.37411 11.3431 2.83429Z" fill="black"/>
<path id="Vector_3" d="M18.3959 2.83429L18.3959 12.8908C16.7404 13.3407 15.7631 15.0476 16.213 16.7031C16.502 17.7664 17.3327 18.597 18.3959 18.886L18.3959 21.1658C18.3959 21.626 18.769 21.999 19.2292 21.999C19.6894 21.999 20.0624 21.626 20.0624 21.1658L20.0624 18.886C21.718 18.4361 22.6953 16.7292 22.2453 15.0737C21.9563 14.0104 21.1257 13.1798 20.0624 12.8908L20.0624 2.83429C20.0624 2.37411 19.6894 2.00105 19.2292 2.00105C18.769 2.00105 18.3959 2.37411 18.3959 2.83429Z" fill="black"/>
</g>
</g>
</svg>
