<svg width="20" height="21" viewBox="0 0 20 21" fill="none" xmlns="http://www.w3.org/2000/svg">
<g id="menu (2) 1">
<g clip-path="url(#clip0_446_11197)">
<path id="Vector" d="M4.16667 0.5H0.833333C0.373333 0.5 0 0.873333 0 1.33333V4.66667C0 5.12667 0.373333 5.5 0.833333 5.5H4.16667C4.62667 5.5 5 5.12667 5 4.66667V1.33333C5 0.873333 4.62667 0.5 4.16667 0.5Z" fill="black"/>
<path id="Vector_2" d="M4.16667 8H0.833333C0.373333 8 0 8.37333 0 8.83333V12.1667C0 12.6267 0.373333 13 0.833333 13H4.16667C4.62667 13 5 12.6267 5 12.1667V8.83333C5 8.37333 4.62667 8 4.16667 8Z" fill="black"/>
<path id="Vector_3" d="M4.16667 15.5H0.833333C0.373333 15.5 0 15.8733 0 16.3333V19.6667C0 20.1267 0.373333 20.5 0.833333 20.5H4.16667C4.62667 20.5 5 20.1267 5 19.6667V16.3333C5 15.8733 4.62667 15.5 4.16667 15.5Z" fill="black"/>
<path id="Vector_4" d="M11.6667 0.5H8.33333C7.87333 0.5 7.5 0.873333 7.5 1.33333V4.66667C7.5 5.12667 7.87333 5.5 8.33333 5.5H11.6667C12.1267 5.5 12.5 5.12667 12.5 4.66667V1.33333C12.5 0.873333 12.1267 0.5 11.6667 0.5Z" fill="black"/>
<path id="Vector_5" d="M11.6667 8H8.33333C7.87333 8 7.5 8.37333 7.5 8.83333V12.1667C7.5 12.6267 7.87333 13 8.33333 13H11.6667C12.1267 13 12.5 12.6267 12.5 12.1667V8.83333C12.5 8.37333 12.1267 8 11.6667 8Z" fill="black"/>
<path id="Vector_6" d="M11.6667 15.5H8.33333C7.87333 15.5 7.5 15.8733 7.5 16.3333V19.6667C7.5 20.1267 7.87333 20.5 8.33333 20.5H11.6667C12.1267 20.5 12.5 20.1267 12.5 19.6667V16.3333C12.5 15.8733 12.1267 15.5 11.6667 15.5Z" fill="black"/>
<path id="Vector_7" d="M19.1667 0.5H15.8333C15.3733 0.5 15 0.873333 15 1.33333V4.66667C15 5.12667 15.3733 5.5 15.8333 5.5H19.1667C19.6267 5.5 20 5.12667 20 4.66667V1.33333C20 0.873333 19.6267 0.5 19.1667 0.5Z" fill="black"/>
<path id="Vector_8" d="M19.1667 8H15.8333C15.3733 8 15 8.37333 15 8.83333V12.1667C15 12.6267 15.3733 13 15.8333 13H19.1667C19.6267 13 20 12.6267 20 12.1667V8.83333C20 8.37333 19.6267 8 19.1667 8Z" fill="black"/>
<path id="Vector_9" d="M19.1667 15.5H15.8333C15.3733 15.5 15 15.8733 15 16.3333V19.6667C15 20.1267 15.3733 20.5 15.8333 20.5H19.1667C19.6267 20.5 20 20.1267 20 19.6667V16.3333C20 15.8733 19.6267 15.5 19.1667 15.5Z" fill="black"/>
</g>
</g>
<defs>
<clipPath id="clip0_446_11197">
<rect y="0.5" width="20" height="20" rx="3" fill="white"/>
</clipPath>
</defs>
</svg>
