<svg width="20" height="21" viewBox="0 0 20 21" fill="none" xmlns="http://www.w3.org/2000/svg">
<g id="apps 1" opacity="0.4" clip-path="url(#clip0_446_11191)">
<g id="Group">
<path id="Vector" d="M3.33332 0.5H5.83332C7.67426 0.5 9.16664 1.99238 9.16664 3.83332V6.33332C9.16664 8.17426 7.67426 9.66664 5.83332 9.66664H3.33332C1.49238 9.66668 0 8.1743 0 6.33332V3.83332C0 1.99238 1.49238 0.5 3.33332 0.5Z" fill="black"/>
<path id="Vector_2" d="M14.1663 0.5H16.6663C18.5073 0.5 19.9996 1.99238 19.9996 3.83332V6.33332C19.9996 8.17426 18.5073 9.66664 16.6663 9.66664H14.1663C12.3254 9.66664 10.833 8.17426 10.833 6.33332V3.83332C10.833 1.99238 12.3254 0.5 14.1663 0.5Z" fill="black"/>
<path id="Vector_3" d="M3.33332 11.333H5.83332C7.67426 11.333 9.16664 12.8254 9.16664 14.6663V17.1663C9.16664 19.0073 7.67426 20.4996 5.83332 20.4996H3.33332C1.49238 20.4997 0 19.0073 0 17.1664V14.6664C0 12.8254 1.49238 11.333 3.33332 11.333Z" fill="black"/>
<path id="Vector_4" d="M14.1663 11.333H16.6663C18.5073 11.333 19.9996 12.8254 19.9996 14.6663V17.1663C19.9996 19.0073 18.5073 20.4997 16.6663 20.4997H14.1663C12.3254 20.4997 10.833 19.0073 10.833 17.1664V14.6664C10.833 12.8254 12.3254 11.333 14.1663 11.333Z" fill="black"/>
</g>
</g>
<defs>
<clipPath id="clip0_446_11191">
<rect width="20" height="20" fill="white" transform="translate(0 0.5)"/>
</clipPath>
</defs>
</svg>
