<svg width="24" height="24" viewBox="0 0 24 24" fill="none" xmlns="http://www.w3.org/2000/svg">
<g id="exchange">
<path id="Vector" d="M20.531 5.4717L17.531 2.4717C17.238 2.1787 16.763 2.1787 16.47 2.4717C16.177 2.7647 16.177 3.2397 16.47 3.5327L18.19 5.2527H6.001C4.484 5.2527 3.251 6.4857 3.251 8.0027V11.0017C3.251 11.4157 3.587 11.7517 4.001 11.7517C4.415 11.7517 4.751 11.4157 4.751 11.0017V8.0027C4.751 7.3137 5.312 6.7527 6.001 6.7527H18.19L16.47 8.4727C16.177 8.7657 16.177 9.2407 16.47 9.5337C16.616 9.6797 16.808 9.7537 17 9.7537C17.192 9.7537 17.384 9.6807 17.53 9.5337L20.53 6.5337C20.823 6.2407 20.823 5.7657 20.53 5.4727L20.531 5.4717Z" fill="black"/>
<path id="Vector_2" d="M19 12.249C18.586 12.249 18.25 12.585 18.25 12.999V15.998C18.25 16.687 17.689 17.248 17 17.248H5.811L7.531 15.528C7.824 15.235 7.824 14.76 7.531 14.467C7.238 14.174 6.763 14.174 6.47 14.467L3.47 17.467C3.177 17.76 3.177 18.235 3.47 18.528L6.47 21.528C6.616 21.674 6.808 21.748 7 21.748C7.192 21.748 7.384 21.675 7.53 21.528C7.823 21.235 7.823 20.76 7.53 20.467L5.81 18.747H16.999C18.516 18.747 19.749 17.514 19.749 15.997V12.998C19.749 12.584 19.413 12.248 18.999 12.248L19 12.249Z" fill="black"/>
</g>
</svg>
