<svg width="24" height="24" viewBox="0 0 24 24" fill="none" xmlns="http://www.w3.org/2000/svg">
<g id="shopping-cart (1)">
<path id="Vector" d="M21 9.25068H18.401L14.624 3.58468C14.394 3.23968 13.927 3.14568 13.584 3.37668C13.239 3.60668 13.146 4.07168 13.376 4.41668L16.599 9.25068H7.401L10.624 4.41668C10.854 4.07168 10.761 3.60668 10.416 3.37668C10.071 3.14668 9.606 3.23968 9.376 3.58468L5.599 9.25068H3C2.586 9.25068 2.25 9.58668 2.25 10.0007C2.25 10.4147 2.586 10.7507 3 10.7507H3.385L4.943 18.5397C5.199 19.8207 6.333 20.7507 7.64 20.7507H16.361C17.668 20.7507 18.801 19.8207 19.058 18.5397L20.616 10.7507H21.001C21.415 10.7507 21.751 10.4147 21.751 10.0007C21.751 9.58668 21.414 9.25068 21 9.25068ZM17.586 18.2457C17.469 18.8277 16.954 19.2507 16.36 19.2507H7.64C7.046 19.2507 6.531 18.8277 6.414 18.2457L4.915 10.7507H19.085L17.586 18.2457Z" fill="black"/>
<path id="Vector_2" d="M14.75 14V16C14.75 16.414 14.414 16.75 14 16.75C13.586 16.75 13.25 16.414 13.25 16V14C13.25 13.586 13.586 13.25 14 13.25C14.414 13.25 14.75 13.586 14.75 14ZM10 13.25C9.586 13.25 9.25 13.586 9.25 14V16C9.25 16.414 9.586 16.75 10 16.75C10.414 16.75 10.75 16.414 10.75 16V14C10.75 13.586 10.414 13.25 10 13.25Z" fill="black"/>
</g>
</svg>
