<svg width="24" height="24" viewBox="0 0 20 20" fill="none" xmlns="http://www.w3.org/2000/svg">
<g id="visible 1">
<path id="Vector" fill-rule="evenodd" clip-rule="evenodd" d="M17.9869 10.3443C16.373 13.2425 13.3124 15.0429 10.0011 15.0429C6.68754 15.0429 3.62695 13.2425 2.01305 10.3443C1.88875 10.1193 1.88875 9.88141 2.01305 9.65656C3.62695 6.75844 6.68754 4.95828 10.0011 4.95828C13.3124 4.95828 16.373 6.75844 17.9869 9.65656C18.1134 9.88141 18.1134 10.1193 17.9869 10.3443ZM19.0179 9.08195C17.1961 5.8098 13.7411 3.77734 10.0011 3.77734C6.25887 3.77734 2.80391 5.8098 0.98211 9.08195C0.656329 9.66578 0.656329 10.3351 0.98211 10.9185C2.80391 14.1907 6.25887 16.2236 10.0011 16.2236C13.7411 16.2236 17.1961 14.1907 19.0179 10.9185C19.3436 10.3352 19.3436 9.66578 19.0179 9.08195ZM10.0011 12.4229C11.3363 12.4229 12.423 11.3362 12.423 10.0004C12.423 8.66445 11.3363 7.57781 10.0011 7.57781C8.66363 7.57781 7.57699 8.66445 7.57699 10.0004C7.57699 11.3362 8.66367 12.4229 10.0011 12.4229ZM10.0011 6.39687C8.01207 6.39687 6.39606 8.01355 6.39606 10.0004C6.39606 11.9877 8.01211 13.6037 10.0011 13.6037C11.9879 13.6037 13.6039 11.9876 13.6039 10.0004C13.6039 8.01355 11.9879 6.39687 10.0011 6.39687Z" fill="black"/>
</g>
</svg>
