<svg width="123" height="61" viewBox="0 0 160 30" fill="none" xmlns="http://www.w3.org/2000/svg">
<g id="logoipsum-logo-43" clip-path="url(#clip0_446_8778)">
<path id="Vector" d="M38.5656 1.27539H42.5602V23.0644H49.1333V26.696H38.5656V1.27539Z" fill="#726BEA"/>
<path id="Vector_2" d="M56.6812 27.059C54.7202 27.059 53.2192 26.5022 52.1781 25.3885C51.1371 24.2748 50.6166 22.7012 50.6166 20.6675V7.30358C50.6166 5.26993 51.1371 3.69627 52.1781 2.58261C53.2192 1.46894 54.7202 0.912109 56.6812 0.912109C58.6422 0.912109 60.1432 1.46894 61.1843 2.58261C62.2253 3.69627 62.7458 5.26993 62.7458 7.30358V20.6675C62.7458 22.7012 62.2253 24.2748 61.1843 25.3885C60.1432 26.5022 58.6422 27.059 56.6812 27.059ZM56.6812 23.4275C58.0612 23.4275 58.7512 22.5922 58.7512 20.9217V7.04937C58.7512 5.37887 58.0612 4.54362 56.6812 4.54362C55.3012 4.54362 54.6112 5.37887 54.6112 7.04937V20.9217C54.6112 22.5922 55.3012 23.4275 56.6812 23.4275Z" fill="#726BEA"/>
<path id="Vector_3" d="M71.1124 27.059C69.1756 27.059 67.6988 26.5143 66.6819 25.4248C65.6651 24.3112 65.1567 22.7254 65.1567 20.6675V7.30358C65.1567 5.24572 65.6651 3.67206 66.6819 2.58261C67.6988 1.46894 69.1756 0.912109 71.1124 0.912109C73.0492 0.912109 74.526 1.46894 75.5428 2.58261C76.5597 3.67206 77.0681 5.24572 77.0681 7.30358V9.48248H73.2913V7.04937C73.2913 5.37887 72.6013 4.54362 71.2213 4.54362C69.8414 4.54362 69.1514 5.37887 69.1514 7.04937V20.9581C69.1514 22.6044 69.8414 23.4275 71.2213 23.4275C72.6013 23.4275 73.2913 22.6044 73.2913 20.9581V15.9829H71.294V12.3514H77.0681V20.6675C77.0681 22.7254 76.5597 24.3112 75.5428 25.4248C74.526 26.5143 73.0492 27.059 71.1124 27.059Z" fill="#726BEA"/>
<path id="Vector_4" d="M85.407 27.059C83.446 27.059 81.945 26.5022 80.904 25.3885C79.8629 24.2748 79.3424 22.7012 79.3424 20.6675V7.30358C79.3424 5.26993 79.8629 3.69627 80.904 2.58261C81.945 1.46894 83.446 0.912109 85.407 0.912109C87.3681 0.912109 88.8691 1.46894 89.9101 2.58261C90.9512 3.69627 91.4717 5.26993 91.4717 7.30358V20.6675C91.4717 22.7012 90.9512 24.2748 89.9101 25.3885C88.8691 26.5022 87.3681 27.059 85.407 27.059ZM85.407 23.4275C86.787 23.4275 87.477 22.5922 87.477 20.9217V7.04937C87.477 5.37887 86.787 4.54362 85.407 4.54362C84.0271 4.54362 83.3371 5.37887 83.3371 7.04937V20.9217C83.3371 22.5922 84.0271 23.4275 85.407 23.4275Z" fill="#726BEA"/>
<path id="Vector_5" d="M94.1808 1.27539H98.1755V26.696H94.1808V1.27539Z" fill="#4F46E5"/>
<path id="Vector_6" d="M101.167 1.27539H107.05C109.035 1.27539 110.524 1.80801 111.517 2.87326C112.51 3.9385 113.006 5.50005 113.006 7.55791V10.0636C113.006 12.1215 112.51 13.683 111.517 14.7483C110.524 15.8135 109.035 16.3461 107.05 16.3461H105.162V26.696H101.167V1.27539ZM107.05 12.7146C107.704 12.7146 108.188 12.533 108.503 12.1699C108.842 11.8067 109.011 11.1894 109.011 10.3178V7.30371C109.011 6.43214 108.842 5.81478 108.503 5.45163C108.188 5.08848 107.704 4.90691 107.05 4.90691H105.162V12.7146H107.05Z" fill="#4F46E5"/>
<path id="Vector_7" d="M120.51 27.059C118.574 27.059 117.109 26.5143 116.116 25.4248C115.124 24.3112 114.627 22.7254 114.627 20.6675V19.2149H118.404V20.9581C118.404 22.6044 119.094 23.4275 120.474 23.4275C121.152 23.4275 121.66 23.2338 121.999 22.8465C122.362 22.4349 122.544 21.7812 122.544 20.8854C122.544 19.8202 122.302 18.8881 121.818 18.0892C121.334 17.266 120.438 16.2855 119.13 15.1476C117.484 13.695 116.334 12.3877 115.68 11.2256C115.027 10.0393 114.7 8.70776 114.7 7.23095C114.7 5.22151 115.208 3.67206 116.225 2.58261C117.242 1.46894 118.719 0.912109 120.656 0.912109C122.568 0.912109 124.009 1.46894 124.977 2.58261C125.97 3.67206 126.466 5.24572 126.466 7.30358V8.35672H122.689V7.04937C122.689 6.17781 122.52 5.54834 122.181 5.16098C121.842 4.74941 121.346 4.54362 120.692 4.54362C119.36 4.54362 118.695 5.35466 118.695 6.97674C118.695 7.89672 118.937 8.75618 119.421 9.55511C119.929 10.354 120.837 11.3224 122.145 12.4603C123.815 13.9129 124.965 15.2324 125.595 16.4187C126.224 17.605 126.539 18.997 126.539 20.5949C126.539 22.677 126.018 24.2748 124.977 25.3885C123.96 26.5022 122.471 27.059 120.51 27.059Z" fill="#4F46E5"/>
<path id="Vector_8" d="M134.64 27.0591C132.703 27.0591 131.226 26.5144 130.209 25.4249C129.192 24.3113 128.684 22.7255 128.684 20.6676V1.27539H132.679V20.9582C132.679 21.8297 132.848 22.4592 133.187 22.8466C133.55 23.2339 134.059 23.4276 134.712 23.4276C135.366 23.4276 135.862 23.2339 136.201 22.8466C136.564 22.4592 136.746 21.8297 136.746 20.9582V1.27539H140.595V20.6676C140.595 22.7255 140.087 24.3113 139.07 25.4249C138.053 26.5144 136.576 27.0591 134.64 27.0591Z" fill="#4F46E5"/>
<path id="Vector_9" d="M143.44 1.27539H149.142L151.684 19.4692H151.756L154.299 1.27539H160V26.696H156.223V7.44897H156.151L153.245 26.696H149.904L146.999 7.44897H146.927V26.696H143.44V1.27539Z" fill="#4F46E5"/>
<path id="Vector_10" d="M0 26.6953C4.91448 26.6953 8.89841 22.7113 8.89841 17.7969C8.89841 12.8824 4.91448 8.89844 0 8.89844V15.1273C1.47433 15.1273 2.66951 16.3225 2.66951 17.7969C2.66951 19.2712 1.47433 20.4664 0 20.4664V26.6953Z" fill="#726BEA"/>
<path id="Vector_11" d="M29.6614 11.8646C28.1408 11.3829 26.5215 11.123 24.8414 11.123C16.0363 11.123 8.89844 18.261 8.89844 27.066C8.89844 27.9498 8.97036 28.8168 9.10862 29.6614H19.0145C18.6609 28.8686 18.4643 27.9903 18.4643 27.066C18.4643 23.544 21.3194 20.6888 24.8414 20.6888C26.7664 20.6888 28.4921 21.5417 29.6614 22.8902V11.8646Z" fill="#A5B4FC"/>
<path id="Vector_12" d="M1.56445 0C2.30219 6.67374 7.96024 11.8646 14.8306 11.8646C21.7009 11.8646 27.359 6.67374 28.0967 0H18.5512C17.9619 1.4773 16.5181 2.52121 14.8306 2.52121C13.143 2.52121 11.6993 1.4773 11.1099 0H1.56445Z" fill="#4F46E5"/>
</g>
<defs>
<clipPath id="clip0_446_8778">
<rect width="160" height="30" fill="white"/>
</clipPath>
</defs>
</svg>
