<svg width="33" height="35" viewBox="0 0 42 44" fill="none" xmlns="http://www.w3.org/2000/svg">
<path d="M41.2157 16.0363L37.5952 12.6936V3.7126C37.5952 2.91423 36.9489 2.26792 36.1505 2.26792H31.2959C30.4274 2.26792 29.7226 2.97272 29.7226 3.84128V5.41757L26.0144 1.99595C23.1338 -0.665315 18.6915 -0.665315 15.8109 1.99595L0.609549 16.0363C0.0363543 16.5656 -0.15374 17.3932 0.129933 18.1214C0.413606 18.8496 1.11548 19.3292 1.89631 19.3292H3.86447C3.81183 19.8703 3.78258 20.4171 3.78258 20.9699V26.8743C3.78258 36.294 11.4886 44 20.9082 44C30.3279 44 38.0339 36.294 38.0339 26.8743V20.9699C38.0339 20.4171 38.0047 19.8703 37.952 19.3292H39.9202C40.701 19.3292 41.4029 18.8496 41.6865 18.1214C41.979 17.3932 41.7889 16.5656 41.2157 16.0363ZM21.8645 16.5744C22.8179 14.7612 24.8914 13.9745 26.494 14.8168C28.0966 15.659 28.6259 17.8114 27.6725 19.6275C26.7191 21.4407 24.6486 22.2274 23.0431 21.3851C21.4376 20.54 20.9112 18.3876 21.8645 16.5744ZM15.3342 14.8139C16.9368 13.9716 19.0103 14.7583 19.9636 16.5715C20.917 18.3846 20.3877 20.537 18.7851 21.3822C17.1825 22.2245 15.109 21.4378 14.1557 19.6246C13.2023 17.8114 13.7287 15.659 15.3342 14.8139ZM9.31274 23.8446C8.49974 22.2946 8.95011 20.4581 10.3188 19.7387C11.6874 19.0192 13.4567 19.6919 14.2726 21.2389C15.0856 22.7889 14.6353 24.6254 13.2666 25.3449C11.8951 26.0672 10.1257 25.3946 9.31274 23.8446ZM20.9141 37.7533C18.7149 37.7007 12.711 37.6802 12.711 32.384C12.711 26.2865 17.5714 22.8591 20.9141 22.8561C24.2538 22.862 29.1172 26.2865 29.1172 32.384C29.1143 37.6802 23.1104 37.7007 20.9141 37.7533ZM32.5125 23.8446C31.6995 25.3946 29.9302 26.0643 28.5586 25.3449C27.1871 24.6254 26.7396 22.786 27.5526 21.2389C28.3656 19.6889 30.1349 19.0192 31.5065 19.7387C32.8751 20.4581 33.3255 22.2976 32.5125 23.8446Z" fill="black"/>
</svg>
